<?xml version="1.0" encoding="utf-8"?>
<!-- Generator: Adobe Illustrator 21.0.0, SVG Export Plug-In . SVG Version: 6.00 Build 0)  -->
<svg version="1.1" id="_x38_13c2686-e70f-4fb0-bf6b-a2eb7b1db384"
	 xmlns="http://www.w3.org/2000/svg" xmlns:xlink="http://www.w3.org/1999/xlink" x="0px" y="0px" viewBox="0 0 1121 851.8"
	 style="enable-background:new 0 0 1121 851.8;" xml:space="preserve">
<style type="text/css">
	.st0{opacity:0.1;enable-background:new    ;}
	.st1{opacity:0.9;}
	.st2{opacity:0.1;fill:#1BB1DC;enable-background:new    ;}
	.st3{fill:#3F3D56;}
	.st4{fill:#FBBEBE;}
	.st5{fill:#65617D;}
	.st6{fill:#1BB1DC;}
	.st7{fill:#B2B1BB;}
	.st8{opacity:0.2;enable-background:new    ;}
	.st9{opacity:0.1;fill:#CCCCCC;enable-background:new    ;}
	.st10{fill:#464353;}
	.st11{fill:#333F4F;}
	.st12{fill:#2D394A;stroke:#40868E;stroke-width:0.6217;stroke-miterlimit:10;}
	.st13{opacity:0.2;}
	.st14{opacity:0.1;}
	.st15{fill:url(#SVGID_1_);}
	.st16{fill:#A1616A;}
	.st17{fill:#FF748E;}
	.st18{fill:#5E5A6B;}
	.st19{fill:#9F9EFF;}
	.st20{fill:url(#SVGID_2_);}
	.st21{fill:#514E7F;}
	.st22{opacity:0.15;enable-background:new    ;}
	.st23{fill:#945B79;}
	.st24{fill:#FFC1C7;}
	.st25{fill:#FF6584;}
	
		.st26{opacity:0.3;fill:none;stroke:#000000;stroke-width:0.4663;stroke-miterlimit:10;stroke-dasharray:7.4605;enable-background:new    ;}
	.st27{opacity:0.5;fill:#1BB1DC;enable-background:new    ;}
	.st28{fill:url(#SVGID_3_);}
</style>
<title>interaction design</title>
<path class="st0" d="M533.3,523.9L533.3,523.9c0,2.1-1.7,3.9-3.9,3.9H416.1c-2.1,0,0-4.3,0-4.3s6.3-3,15.5-2.5l82.7-1.8
	c0,0,9.8,0.2,15.5,0.8C531.8,520.3,533.3,521.9,533.3,523.9z"/>
<g>
	<g class="st1">
		<path class="st2" d="M927.3,348.3C927.3,348.3,927.3,348.4,927.3,348.3c0,0.1,0,0.1,0,0.1c0,0.2,0,0.4-0.1,0.5
			c-0.2,1.5-0.5,2.9-0.8,4.4c-2.2,10.1-6.8,20-13,29.1c-0.2,0.3-0.5,0.7-0.7,1c-0.5,0.7-1,1.3-1.4,2c-0.3,0.5-0.7,0.9-1,1.4
			c-2.4,3.1-5,6.1-7.8,8.9c-1.5,1.5-3.1,3-4.7,4.4l-0.7,0.6c-0.9,0.7-1.7,1.5-2.6,2.2c-0.4,0.3-0.8,0.6-1.2,0.9l-0.7,0.5l-0.5,0.4
			c-0.4,0.3-0.9,0.6-1.3,1l-0.3,0.2c-1,0.7-2.1,1.5-3.1,2.1c-2.3,1.5-4.6,2.8-7,4c-1.1,0.6-2.2,1.1-3.4,1.6
			c-1.4,0.6-2.7,1.2-4.1,1.7c-0.4,0.1-0.8,0.3-1.1,0.4c-1.1,0.4-2.1,0.7-3.2,1l-0.5,0.2l-0.3,0.1l0,0l-0.7,0.2
			c-3.2,0.9-6.4,1.5-9.7,2l-0.5,0.1l-0.3,0c-4.2,0.6-8.3,0.9-12.4,1.1c-5.7,0.3-11.4,0.3-17.1,0l-1.6-0.1h-0.3
			c-1.1-0.1-2.2-0.2-3.2-0.3c-0.6-0.1-1.2-0.1-1.9-0.2c-0.9-0.1-1.9-0.2-2.8-0.4h0l-0.9-0.1c-0.8-0.1-1.6-0.3-2.4-0.4l-0.8-0.1
			l-1.2-0.3l-0.2,0c-2.6-0.6-5.2-1.2-7.7-2l-0.6-0.2c-1.8-0.6-3.6-1.3-5.3-2c-1.3-0.6-2.6-1.2-3.8-1.8c-1.8-0.9-3.5-1.9-5.2-2.9
			c-2.4-1.5-4.7-3-6.9-4.7c-2.9-2.2-5.7-4.5-8.5-7l-0.6-0.5l-1-0.9c-14.1-12.7-25.9-27.7-34.9-44.4c-0.9-1.8-1.9-3.6-2.7-5.4
			c-0.3-0.6-0.5-1.1-0.8-1.7c0,0,0-0.1-0.1-0.1L733,344c-1.1-2.4-2.2-4.9-3.2-7.4l-0.4-1.1l-0.7-1.8l-0.3-0.8
			c-0.9-2.3-1.7-4.7-2.4-7.1c-0.1-0.4-0.3-0.8-0.4-1.2c-0.4-1.3-0.8-2.6-1.1-3.9c-0.3-1.2-0.6-2.4-0.9-3.7c0-0.2-0.1-0.4-0.1-0.6
			c-2.5-10.5-3.5-21.8-1-33.3c0.2-0.8,0.4-1.6,0.6-2.3c0.3-1.2,0.6-2.3,1-3.5c0.1-0.3,0.2-0.5,0.3-0.8l0.1-0.3c0-0.1,0-0.1,0.1-0.2
			c0,0,0-0.1,0-0.1c0.2-0.6,0.4-1.1,0.7-1.7c0.2-0.6,0.5-1.2,0.7-1.7l0,0l0-0.1c0-0.1,0.1-0.1,0.1-0.2c0.2-0.4,0.4-0.9,0.6-1.3
			l0.2-0.4l0.1-0.2c0.1-0.2,0.2-0.5,0.4-0.7c1.7-3.2,3.7-6.3,6-9.1c1.3-1.6,2.6-3.1,4.1-4.5c2.2-2.2,4.6-4.1,7.2-5.8
			c0.4-0.2,0.8-0.5,1.2-0.7c3.3-2,7-3.3,10.8-3.9c4.9-0.7,9.6,0.1,14.1,1.2l0.5,0.1c0.8,0.2,1.5,0.4,2.3,0.6c2.6,0.7,5.3,1.4,8,1.9
			c2.5,0.6,5,1,7.5,1.4c2.6,0.3,5.2,0.5,7.8,0.4c0.4,0,0.8,0,1.2,0c4.8-0.2,9.5-1.3,14-3.1c3.4-1.4,6.5-3.4,9.1-6
			c0.5-0.5,1-1.1,1.4-1.6l0,0c0.8-1,1.4-2,2-3.1c0.2-0.3,0.3-0.7,0.5-1l0,0c0.1-0.1,0.1-0.2,0.2-0.4l0,0l1-1.9l0,0
			c0-0.1,0.1-0.1,0.1-0.2c0.5-0.9,0.9-1.8,1.4-2.6c1.8-3.6,4.1-6.9,6.7-9.9l0,0c2.8-3.1,6.2-5.5,10-7.2c0.6-0.3,1.2-0.5,1.9-0.8
			c2.9-1,5.9-1.6,9-1.6c0.4,0,0.7,0,1.1,0c3,0.1,6.1,0.6,9,1.6l0,0c4.4,1.5,8.6,3.6,12.3,6.4c5.7,4.1,10.9,8.8,15.4,14.2
			c0.4,0.4,0.7,0.9,1.1,1.3c3.9,4.8,7.3,9.9,10.3,15.2c9,15.9,14.9,34.6,19.1,53.6l0.2,0.9c0.1,0.4,0.2,0.9,0.3,1.3
			c0.2,0.9,0.4,1.9,0.6,2.8c0.1,0.7,0.3,1.4,0.4,2l0,0c0.1,0.5,0.2,1,0.3,1.5c0.1,0.3,0.1,0.6,0.2,0.9c1,5.1,1.8,10.2,2.3,15.4
			c0,0.2,0,0.4,0,0.6C928.3,335.6,928.2,342,927.3,348.3z"/>
		<path class="st3" d="M882,398.8c-0.7-0.2-1.9,0.6-3.4,1.9c-0.7,0.6-1.5,1.4-2.4,2.2l-0.4,0.4l-0.2,0.2c-1.2,1.1-2.4,2.4-3.8,3.6
			c-0.8,0.8-1.7,1.6-2.6,2.4c-1.2,1-1.9,3.8-2.2,7.7c-3.2,0.9-6.4,1.5-9.7,2l-0.5,0.1l-0.3,0c-0.2-1.2-0.3-1.9-0.3-1.9
			s-5.6-4.7-4-10.5c0.9-3.3,10.1-9.6,17.8-14.3c0.9-0.6,1.9-1.1,2.7-1.7l0.6-0.3c0.4-0.2,0.7-0.4,1-0.6l2.5-1.5c1.8-1,3-1.7,3.5-2
			l0.2-0.1C880.5,386.4,883.7,399.3,882,398.8z"/>
		<path class="st0" d="M882,398.8c-0.7-0.2-1.9,0.6-3.4,1.9c-0.7,0.6-1.5,1.4-2.4,2.2l-0.4,0.4l-0.2,0.2c-1.2,1.1-2.4,2.4-3.8,3.6
			c-0.8,0.8-1.7,1.6-2.6,2.4c-1.2,1-1.9,3.8-2.2,7.7c-3.2,0.9-6.4,1.5-9.7,2l-0.5,0.1l-0.3,0c-0.2-1.2-0.3-1.9-0.3-1.9
			s-5.6-4.7-4-10.5c0.9-3.3,10.1-9.6,17.8-14.3c0.9-0.6,1.9-1.1,2.7-1.7l0.6-0.3c0.4-0.2,0.7-0.4,1-0.6l2.5-1.5c1.8-1,3-1.7,3.5-2
			l0.2-0.1C880.5,386.4,883.7,399.3,882,398.8z"/>
		<path class="st3" d="M880.6,391.8c0,0-1.1,1.2-2.9,3c-0.7,0.8-1.6,1.7-2.5,2.7l-0.1,0.1l-0.5,0.5c-1.1,1.2-2.3,2.4-3.5,3.7
			c-6.4,6.8-13.5,14.8-13.5,16c0,0.5-0.1,0.9-0.3,1.4l-0.5,0.1l-0.3,0c-4.2,0.6-8.3,0.9-12.4,1.1c-5.7,0.3-11.4,0.3-17.1,0l-1.6-0.1
			h-0.3c-1.1-0.1-2.2-0.2-3.2-0.3c-0.6-0.1-1.2-0.1-1.9-0.2c0.7-1,1.5-2.1,2.3-3.2c1.5-2.2,3-4.5,4.3-6.5c0.1-0.1,0.1-0.2,0.2-0.3
			c0.8-1.2,1.4-2.4,1.9-3.4c0.5-0.9,0.8-1.9,1-2.9c0.2-1.2,0.6-2.4,1.1-3.6c2.7-7,9.9-21.1,13.9-29l0.4-0.7l0.3-0.7
			c1.3-2.5,2.1-4.1,2.1-4.1l9.8-2.6l0.6-0.2l2.2-0.6l0.8-0.2l4.6-1.2h0.1l0.2,0l4.9-1.3l1.6-0.4l1.9-0.5l4.7,8.1l1.4,20.1
			L880.6,391.8z"/>
		<path class="st0" d="M813.8,418.9c-1.9-2.5-3-4-3-4s2.7-0.7,6.3-1.7c1.8-0.5,3.8-1.1,5.8-1.8c1.2-0.4,2.5-0.9,3.7-1.3
			c0.6-0.2,1.2-0.5,1.7-0.7c2.6-1.1,4.5-2.2,4.9-3.2c0.1-0.4,0-0.8-0.1-1.2c-0.6-1.8-1.4-3.5-2.3-5.2c-0.3-0.6-0.7-1.3-1.1-2
			c-1.2-2.3-2.7-4.9-4.4-7.6c-1.4-2.3-2.8-4.7-4.3-7.1c-1.3-2.1-2.6-4.2-3.9-6.3c0-0.1-0.1-0.1-0.1-0.2
			c-5.9-9.4-11.2-17.4-11.5-17.7l0,0l-3.5,8.4l-0.1,0.1l-5.8,5.1l-0.1,0.1c-1.8,1.6-3.8,3.4-5.9,5.3c-1.5,1.4-3.1,2.8-4.6,4.1
			c-2.1,1.9-4.1,3.7-5.7,5.2c-1.4,1.2-2.6,2.4-3.9,3.7c-1,2.2-1.9,4.4-2.5,6.7c2.7,2.4,5.6,4.8,8.5,7c2.2,1.7,4.5,3.2,6.9,4.7
			c1.7,1,3.4,2,5.2,2.9c1.2,0.6,2.5,1.2,3.8,1.8c1.7,0.7,3.5,1.4,5.3,2l0.6,0.2c2.5,0.8,5,1.5,7.7,2l0.2,0l1.2,0.3L813.8,418.9z"/>
		<path class="st3" d="M861.6,360l-0.6,0.9c-0.2,0.4-0.5,0.8-0.9,1.3c-0.4,0.5-0.8,1.3-1.4,2.1l-0.4,0.6c-0.9,1.4-2,3.1-3.1,4.9
			c-0.1,0.2-0.3,0.4-0.4,0.7c-0.1,0.2-0.3,0.5-0.4,0.7c-7.5,11.7-18.5,29-21.3,34c-0.2,0.4-0.4,0.8-0.6,1.2c-0.4,0.9-2,1.9-4.2,2.8
			c-0.5,0.2-1,0.4-1.6,0.7c-1.2,0.5-2.5,0.9-3.9,1.4c-2,0.7-4,1.2-5.8,1.8c-3.9,1.1-7,1.9-7,1.9s1.1,1.4,2.9,3.9l-1.2-0.3l-0.2,0
			c-2.6-0.6-5.2-1.2-7.7-2l-0.6-0.2c-1.8-0.6-3.6-1.3-5.3-2c-1.3-0.6-2.6-1.2-3.8-1.8c-1.8-0.9-3.5-1.9-5.2-2.9
			c-2.4-1.5-4.7-3-6.9-4.7c-2.9-2.2-5.7-4.5-8.5-7l-0.6-0.5c0.6-2.1,1.4-4.2,2.3-6.2c0-0.1,1.8-1.9,4.5-4.3c1.6-1.5,3.6-3.3,5.7-5.2
			l4.6-4.1l5.4-4.8l0.1-0.1l5.6-5l0.1-0.1l3.5-8.4h0.7l12.7,0.2h0.1h1.2h0.7l4,0.1l4.7,0.1l5.5,0.1l21.7,0.3h0.7l4.1,0.1L861.6,360z
			"/>
		<path class="st4" d="M861.9,273.3l-2.1,19.1c0,0-21.5,8.6-22,8.4c-0.5-0.2-14.3-12.6-12.1-20.8c1.1-4.1,1.7-9.8,1.9-14.5
			c0.2-4.7,0.2-8.2,0.2-8.2s31.3-11.2,28.5-3.5c-1,2.8-0.6,6.1,0.4,9.3C858,266.7,859.7,270.2,861.9,273.3z"/>
		<path class="st0" d="M856.8,263c-0.2,0.2-0.4,0.4-0.6,0.6c-7.6,8-20.1,8.8-28.6,1.8c0.2-4.6,0.2-8.2,0.2-8.2s31.3-11.2,28.5-3.5
			C855.3,256.5,855.8,259.9,856.8,263z"/>
		<path class="st4" d="M861.9,248.6c0,11.6-9.4,21-21,21c-11.6,0-21-9.4-21-21c0-11.6,9.4-21,21-21c11.5-0.1,20.9,9.2,21,20.7
			C861.9,248.4,861.9,248.5,861.9,248.6z"/>
		<path class="st0" d="M836,293.1c0,0-8.2-18.2-11-18.2s-7.2,94.3-7.2,94.3l42.9,0.7l1.8-49.5l-8.8-43.9
			C853.7,276.5,845.8,293.8,836,293.1z"/>
		<path class="st0" d="M836,294.5c0,0-8.2-18.2-11-18.2s-7.2,94.3-7.2,94.3l48.6,0.7l-4-49.6l-8.8-43.9
			C853.7,277.9,845.8,295.2,836,294.5z"/>
		<path class="st5" d="M836,293.8c0,0-8.2-18.2-11-18.2s-7.2,94.3-7.2,94.3l48.6,0.7l-4-49.6l-8.8-43.9
			C853.7,277.2,845.8,294.5,836,293.8z"/>
		<path class="st0" d="M828,269.9c0,0-1.5-2.2-3.6-1.4c-2.1,0.7-3.7-1.2-5.8,0.7c-2.1,1.9-10.5,4.6-12.1,3.7c-1.6-0.9-7.2,3-8.4,5.3
			c-1.2,2.3-5.3,8.4-5.3,8.4s-3.5,4.2-3,6.5c0.5,2.3-1.2,4.9-3.3,5.9s-6.3,11.6-6.3,11.6s1.1,14-3.6,16.5s-1.2,13.1-1.2,13.1
			l22.3-5.3l6.3-14.3c0,0-2.4,42-5.4,45.8c-3,3.8-3.3,6.3-3.3,6.3s11.5,2.4,14,4.5c2.4,2.1,8.9-0.5,8.9-0.5l6.3-55.8
			c0,0,2.3-10.5,2.3-15.9C826.9,299.4,828,269.9,828,269.9z"/>
		<path class="st6" d="M827.3,269.9c0,0-1.5-2.2-3.6-1.4c-2.1,0.7-3.7-1.2-5.8,0.7c-2.1,1.9-10.5,4.6-12.1,3.7
			c-1.6-0.9-7.2,3-8.4,5.3c-1.2,2.3-5.2,8.4-5.2,8.4s-3.5,4.2-3,6.5c0.5,2.3-1.2,4.9-3.3,5.9c-2.1,1.1-6.3,11.6-6.3,11.6
			s1.1,14-3.6,16.5c-1.2,0.6-1.9,2-2.2,3.7c-1.4,6.8,4.3,13.1,11.3,12.9l12-5l6.3-18.1c0,0-2.4,42-5.4,45.8c-3,3.8-3.3,6.3-3.3,6.3
			s11.6,2.4,14,4.5c2.4,2.1,8.9-0.5,8.9-0.5l6.3-55.8c0,0,2.3-10.5,2.3-15.9S827.3,269.9,827.3,269.9z"/>
		<path class="st0" d="M788.8,300.3c0,0,2.1,5.8,7.9,5.3S788.8,300.3,788.8,300.3z"/>
		<path class="st0" d="M794.4,291.5c0,0,3.8,0.7,5.2,4C801,298.9,794.4,291.5,794.4,291.5z"/>
		<path class="st0" d="M805.2,285.6c0,0.7,2.4,13,0,18c-2.4,5.1-2.1,11-2.1,11L805.2,285.6z"/>
		<path class="st0" d="M856.9,265.7c0,0,1.4-1.6,2.8-1.4c1.4,0.2,2.3,1.1,4,1.8c1.8,0.7,5.9,0.9,5.9,1.4c0,0.5,3.7,2.6,6.1,3.1
			s10.1,5.8,12.1,15.9c1.9,10.2,5.2,13.1,5.2,13.1l-18.5,9.1c0,0,14.3,60.9,16.1,65.3c1.7,4.4,1.9,30.3,1.9,30.3s-11.4,5.1-14.3,6.7
			c-3,1.6-1.8-15.1-7.9-24.7c-6.1-9.6-13.1-23.6-13.1-23.6l-10.7-29.9c0,0-6.8-39.9-1.1-47.2C851.3,278.1,857.4,268.3,856.9,265.7z"
			/>
		<path class="st6" d="M893.2,403.9c0,0.2,0,0.4,0,0.4l-0.7,0.3l-0.5,0.2l-4.7,2.2c-2.6,1.2-5.5,2.5-7.3,3.4
			c-0.5,0.2-0.8,0.4-1.1,0.6c-0.2,0.1-0.5,0.1-0.7,0c-0.9-0.6-1.4-3.8-2-7.9c-0.3-1.7-0.6-3.6-1-5.5c-0.1-0.3-0.1-0.6-0.2-0.9
			c-0.5-2-1-4-1.8-6c-0.6-1.5-1.3-3-2.2-4.4c-0.8-1.2-1.6-2.6-2.4-4c-2.2-3.7-4.4-7.6-6.2-11c-0.1-0.2-0.2-0.5-0.4-0.7
			c-0.5-0.9-0.9-1.7-1.3-2.4c-0.8-1.6-1.5-2.9-2-3.8l-0.8-1.6c0-0.1-0.1-0.1-0.1-0.2l-1-2.7l-1.9-5.2l-2.2-6.1l-1-2.9l-0.7-2.1
			l-0.2-0.7l-3.7-10.3c0,0-0.3-1.5-0.6-4c-1-6.5-2.7-19.7-2.7-30c0-2.5,0.1-5,0.4-7.5c0-0.3,0.1-0.5,0.1-0.8c0-0.3,0.1-0.6,0.2-0.8
			c0.2-1.5,0.8-2.8,1.6-4.1c5.8-7.3,11.9-17.1,11.4-19.7l0.1-0.1c0.3-0.3,0.5-0.5,0.8-0.7c0.4-0.3,0.8-0.5,1.2-0.6
			c0.2,0,0.4,0,0.6,0l0,0c1.4,0.2,2.3,1.1,4,1.8c1.7,0.7,5.9,0.9,5.9,1.4s3.7,2.6,6.1,3.2c2.4,0.5,10.2,5.8,12.1,15.9
			c1.9,9.8,5,12.9,5.2,13.1l0,0l-0.7,0.3l-10.5,5.2l-2.3,1.1l-5.1,2.5c0,0,1.3,5.6,3.2,13.6c0,0.1,0.1,0.2,0.1,0.3
			c0.1,0.2,0.1,0.5,0.2,0.7c1.4,5.8,3.1,12.8,4.7,19.7l0,0l0.1,0.6l0.5,2c0.1,0.6,0.3,1.2,0.5,1.9l0.2,1c0.5,1.9,0.9,3.8,1.4,5.6
			c0.7,2.7,1.3,5.2,1.9,7.6c1.6,6.4,2.9,11.2,3.3,12.3c0.6,1.6,1.1,6.1,1.4,11.2C893.1,392.9,893.2,402,893.2,403.9z"/>
		<path class="st0" d="M895.5,342.3c-0.5,0.1-1.2,0.2-1.9,0.2c-5.6,0.5-16.6,0.6-16.6,0.6s-8.2-16.3-15.2-15.7c0,0,6.5-7.3,9.1-6.5
			c0.4,0.1,0.7-0.2,0.8-0.8c0.7-3.1-1.7-13.9-1.7-13.9l-3.3-14.5l19.3,4.7c1.8,0.3,7.2,3.2,7.2,3.2s0.2,7.5,1.6,9.3
			c1.4,1.7,3,10.2,2.8,12.3c-0.2,2.1,1.9,11.9-0.2,14.5S899.9,341.6,895.5,342.3z"/>
		<path class="st6" d="M896.2,342.3c-0.5,0.1-1.2,0.2-1.9,0.2c-5.6,0.5-16.6,0.6-16.6,0.6s-8.2-16.3-15.2-15.7c0,0,6.5-7.3,9.1-6.5
			c0.4,0.1,0.7-0.2,0.8-0.8c0.7-3.1-1.7-13.9-1.7-13.9l-3.3-14.5l19.3,4.7c1.7,0.3,7.2,3.2,7.2,3.2s0.2,7.5,1.6,9.3
			c1.4,1.7,3,10.2,2.8,12.3c-0.2,2.1,1.9,11.9-0.2,14.5S900.6,341.6,896.2,342.3z"/>
		<path class="st0" d="M876.4,304.1c0,0,16.1,1.8,16.8,5.8S876.4,304.1,876.4,304.1z"/>
		<path class="st0" d="M861.9,248.6c0,5.4-2,10.5-5.7,14.4c0,0,0-0.1,0-0.1c-0.6-1.3-1.2-2.7-1.2-4.2c0.1-1.8,1.1-3.4,1.4-5.1
			c0.4-2.2-0.3-4.4-1-6.6c-0.5-1.6-1.5-3.4-3.1-3.2c-0.3,0.1-0.6,0.1-1,0.1c-0.9-0.1-1-1.2-1.1-2.1c-0.5-4.2-3.7-7.6-7.9-8.3
			c-0.5-0.1-0.9-0.1-1.4,0.1c-0.6,0.3-0.9,0.9-1.5,1.3c-1.8,1.2-4-1.1-6.2-0.9c-1.9,0.2-3,2-3.7,3.7c-0.8,1.7-1.7,3.6-3.5,4
			c-0.3,0.1-0.6,0.1-0.9-0.1c-0.6-0.4-0.2-1.2,0.1-1.9c0.7-1.7,0.2-3-0.7-4.2c7.2-9.1,20.4-10.5,29.5-3.3
			C859,236.1,861.9,242.2,861.9,248.6L861.9,248.6z"/>
		<path class="st7" d="M794.1,412.4c-1.8-0.9-3.5-1.9-5.2-2.9c-2.4-1.5-4.7-3-6.9-4.7l-2.1-17.4l-0.1-0.6l-4.1-33.1l-0.2-2l6.8-0.2
			l4.8-0.1l0.3,2.8l2.7,23.3l0.1,0.6L794.1,412.4z"/>
		<path class="st0" d="M788.9,409.5c-2.4-1.5-4.7-3-6.9-4.7l-2.1-17.4l-0.1-0.6l-4.1-33.1l-0.2-2l6.8-0.2l-0.3,1.1l0.2,1.4l3.4,27.7
			l0.1,0.6L788.9,409.5z"/>
		<path class="st7" d="M835.5,352.1l-0.4,3l-0.6,4.5l-1.2,9.9l-0.1,0.7l-0.1,0.7l-3.4,27.1l-1.1,8.4l-0.3,2.8l0,0.3l-1.4,11
			l-1.6-0.1h-0.3c-1.1-0.1-2.2-0.2-3.2-0.3c-0.6-0.1-1.2-0.1-1.9-0.2c-0.9-0.1-1.9-0.2-2.8-0.4h0l-0.9-0.1l0.9-6.1V413l4-29.8
			l1.7-12.6l0.1-0.7l0.1-0.7l1.3-9.9l0.6-4.2l0.3-2.4l0.4,0L835.5,352.1z"/>
		<path class="st8" d="M829.7,353.7l-0.2,1.5l-0.5,4.3l-1.2,9.9l-0.1,0.7l-0.1,0.7l-2.3,19.6l-2.5,20.9v0.2l-0.6,5.2l-0.4,3.4
			c-0.6-0.1-1.2-0.1-1.9-0.2c-0.9-0.1-1.9-0.2-2.8-0.4h0l-0.9-0.1l0.9-6.1V413l4-29.8l1.7-12.6l0.1-0.7l0.1-0.7l1.3-9.9l0.6-4.2
			l0.3-2.4l0.4,0L829.7,353.7z"/>
		<path class="st5" d="M880,410.3l0.3,1.8c-1.1,0.6-2.2,1.1-3.4,1.6c-1.4,0.6-2.7,1.2-4.1,1.7l-1-8.2l-0.7-5.3l-1.2-9.2l-1.1-8.9
			l-0.2-1.5l-2.8-21.6l-0.5-3.8l-0.1-1.2l-0.1-1.1l-0.3-2.6h0.2h0.1l4.7-0.5l1.5-0.2l0.5,3.2l0.7,4.5l4.4,29.7l0.9,6.3l0.9,5.9
			l1.4,9.2L880,410.3z"/>
		<path class="st9" d="M880,410.3l0.3,1.8c-1.1,0.6-2.2,1.1-3.4,1.6c-1.4,0.6-2.7,1.2-4.1,1.7l-1-8.2l-0.7-5.3l-1.2-9.2l-1.1-8.9
			l-0.2-1.5l-2.8-21.6l-0.5-3.8l-0.1-1.2l-0.1-1.1l-0.3-2.6h0.2h0.1l4.7-0.5l1.5-0.2l0.5,3.2l0.7,4.5l4.4,29.7l0.9,6.3l0.9,5.9
			l1.4,9.2L880,410.3z"/>
		<path class="st7" d="M880.3,412.1c-1.1,0.6-2.2,1.1-3.4,1.6l-0.7-6.2l-0.5-4.1l-0.7-5.8l-0.1-1l-0.8-6.6l-3.5-30.7l-0.6-4.9
			l-0.2-1.6l-0.3-1.4l1.5-0.2l0.5,3.2l0.7,4.5l4.4,29.7l0.9,6.3l0.9,5.9l1.4,9.2l0,0.3L880.3,412.1z"/>
		<path class="st5" d="M895.2,351.6l0,2.4l-0.7,49c-0.4,0.3-0.8,0.6-1.2,0.9c0,0.2,0,0.4,0,0.4l-0.7,0.3l-0.5,0.2
			c-0.4,0.3-0.9,0.6-1.3,1l-0.3,0.2c-1,0.7-2.1,1.5-3.1,2.1v-1.2v-0.3l0.6-42.3l0-2.6l0.1-7.6l0-3.4l4.7,0.6L895.2,351.6z"/>
		<path class="st9" d="M895.2,351.6l0,2.4l-0.7,49c-0.4,0.3-0.8,0.6-1.2,0.9c0,0.2,0,0.4,0,0.4l-0.7,0.3l-0.5,0.2
			c-0.4,0.3-0.9,0.6-1.3,1l-0.3,0.2c-1,0.7-2.1,1.5-3.1,2.1v-1.2v-0.3l0.6-42.3l0-2.6l0.1-7.6l0-3.4l4.7,0.6L895.2,351.6z"/>
		<path class="st7" d="M895.2,351.6l0,2.4l-0.7,49c-0.4,0.3-0.8,0.6-1.2,0.9c0,0.2,0,0.4,0,0.4l-0.7,0.3v-0.1l0.1-19.3l0.2-31.2
			v-2.7L895.2,351.6z"/>
		<path class="st5" d="M927.3,348.4C927.3,348.4,927.3,348.4,927.3,348.4c0,0.2,0,0.4-0.1,0.6c-0.2,1.5-0.5,2.9-0.8,4.4l-31.2,0.6
			l-2.3,0l-4.7,0.1l-2,0h-0.7l-13.8,0.3h-1.5l-5,0.1h-0.1l-3.8,0.1l-6.2,0.1h-0.7l0,0l-19.3,0.4l-5.6,0.1l-4.7,0.1l-4.1,0.1H820
			h-1.5h-0.1l-3.1,0.1l-14.2-0.6l-0.7,0l-13.2-0.6l-5.2-0.2l-6.4-0.3l-38.7-1.7c-0.9-1.8-1.9-3.6-2.7-5.4c-0.3-0.6-0.5-1.1-0.8-1.7
			l39.4-0.6l0,0l24.2-0.4l0,0l4.6-0.1h0.7l12.4-0.2l4.3,0.2h0.1l2.1,0.1l0.7,0l8.5,0.5l0,0l20.6,1.1l0.7,0l9.6,0.5l2.9,0.2h0.1
			l19.3,1.1l0.7,0h0.2L927.3,348.4z"/>
		<path class="st7" d="M927.3,348.4C927.3,348.4,927.3,348.4,927.3,348.4c0,0.2,0,0.4-0.1,0.6c-0.2,1.5-0.5,2.9-0.8,4.4l-31.2,0.6
			l-2.3,0l-4.7,0.1l-2,0h-0.7l-13.8,0.3h-1.5l-5,0.1h-0.1l-3.8,0.1l-6.2,0.1h-0.7l0,0l-19.3,0.4l-5.6,0.1l-4.7,0.1l-4.1,0.1H820
			h-1.5h-0.1l-3.1,0.1l-14.2-0.6h-0.7l-13.2-0.6l-5.2-0.2l-6.4-0.3L737,352c-0.9-1.8-1.9-3.6-2.7-5.4c-0.3-0.6-0.5-1.1-0.8-1.7
			l39.4-0.6l0,0l24.2-0.4l0,0l4.6-0.1h0.7l12.4-0.2l4.3,0.2h0.1l2.1,0.1l0.7,0l8.5,0.5l0,0l20.6,1.1l0.7,0l9.6,0.5l2.9,0.2h0.1
			l19.3,1.1l0.7,0h0.2L927.3,348.4z"/>
		<path class="st0" d="M927.3,348.4C927.3,348.4,927.3,348.4,927.3,348.4l-42.5,0.1h-0.7l-19.4,0h-3.2h-8.5h-0.7l-30.7,0.1h-2.7
			l-16.9,0h-0.7l-17.7,0l-49.2-2.1c-0.3-0.6-0.5-1.1-0.8-1.7l39.4-0.6l0,0l24.2-0.4l0,0l4.6-0.1h0.7l12.4-0.2l4.3,0.2h0.1l2.1,0.1
			l0.7,0l8.5,0.5l0,0l20.6,1.1l0.7,0l9.6,0.5l2.9,0.2h0.1l19.3,1.1l0.7,0h0.2L927.3,348.4z"/>
		<path class="st0" d="M886.1,319.9c1.1,0.3,7.2,1.9,8.4,5.6S886.1,319.9,886.1,319.9z"/>
		<path class="st4" d="M868,326c0,0-8.9,2.7-13,2.7c-4,0-19.8-0.1-19.8-0.1s-41.1-13.7-28.8,5.1s31.8,8.3,31.8,8.3s1.6,0.3,3.5,0.8
			s39.1,0.1,40.3-1.4C883.4,339.9,868,326,868,326z"/>
		<path class="st0" d="M893.6,342.5c-5.6,0.5-16.6,0.6-16.6,0.6s-8.2-16.3-15.2-15.7c0,0,6.5-7.3,9.1-6.5c0.4,0.1,0.7-0.2,0.8-0.8
			c6.8,2.1,19.9,7.2,21.2,16.2C893.2,338.8,893.4,340.8,893.6,342.5z"/>
		<path class="st10" d="M894.3,342.5c-5.6,0.5-16.6,0.6-16.6,0.6s-8.2-16.3-15.2-15.7c0,0,6.5-7.3,9.1-6.5c0.4,0.1,0.7-0.2,0.8-0.8
			c6.8,2.1,19.9,7.2,21.2,16.2C893.9,338.8,894.1,340.8,894.3,342.5z"/>
		<path class="st0" d="M893.6,342.5c-5.6,0.5-16.6,0.6-16.6,0.6s-8.2-16.3-15.2-15.7c0,0,6.5-7.3,9.1-6.5c0.4,0.1,0.7-0.2,0.8-0.8
			c6.8,2.1,19.9,7.2,21.2,16.2C893.2,338.8,893.4,340.8,893.6,342.5z"/>
		<path class="st0" d="M845.1,389.4c0,0,15.7-3.9,18.2-1.8C865.8,389.7,845.1,389.4,845.1,389.4z"/>
		<path class="st0" d="M800,404.4c0,0,6.7,3.8,7.3,7C808,414.6,800,404.4,800,404.4z"/>
		<path class="st11" d="M771.8,273.8v69c0,1.2,0.6,1.4,1.7,1.9c3.5,1.9,12.1,5.4,22.5-0.1c1.1-0.6,1.7-0.7,1.7-2v-68.4
			C797.7,274.2,784.5,279.5,771.8,273.8z"/>
		<ellipse class="st12" cx="784.7" cy="273.7" rx="12.9" ry="2.7"/>
		<g class="st13">
			<circle cx="773" cy="302.4" r="0.3"/>
			<circle cx="774.5" cy="302.8" r="0.3"/>
			<circle cx="776.3" cy="303.4" r="0.3"/>
			<circle cx="779.5" cy="304.1" r="0.3"/>
			<circle cx="783" cy="304.5" r="0.3"/>
			<circle cx="786.5" cy="304.7" r="0.3"/>
			<circle cx="791.7" cy="304" r="0.3"/>
			<circle cx="790" cy="304.4" r="0.3"/>
			<circle cx="794.8" cy="303.4" r="0.3"/>
			<circle cx="793.3" cy="303.7" r="0.3"/>
			<circle cx="796.5" cy="302.8" r="0.3"/>
			<circle cx="778" cy="303.8" r="0.3"/>
			<circle cx="781.3" cy="304.4" r="0.3"/>
			<circle cx="785" cy="304.7" r="0.3"/>
			<circle cx="788.3" cy="304.7" r="0.3"/>
		</g>
		<g class="st13">
			<circle cx="773" cy="303.9" r="0.3"/>
			<circle cx="774.5" cy="304.3" r="0.3"/>
			<circle cx="776.3" cy="304.8" r="0.3"/>
			<circle cx="779.5" cy="305.6" r="0.3"/>
			<circle cx="783" cy="306" r="0.3"/>
			<circle cx="786.5" cy="306.1" r="0.3"/>
			<circle cx="791.7" cy="305.4" r="0.3"/>
			<circle cx="790" cy="305.8" r="0.3"/>
			<circle cx="794.8" cy="304.8" r="0.3"/>
			<circle cx="793.3" cy="305.1" r="0.3"/>
			<circle cx="796.5" cy="304.3" r="0.3"/>
			<circle cx="778" cy="305.3" r="0.3"/>
			<circle cx="781.3" cy="305.8" r="0.3"/>
			<circle cx="785" cy="306.1" r="0.3"/>
			<circle cx="788.3" cy="306.1" r="0.3"/>
		</g>
		<g class="st13">
			<circle cx="773" cy="305.3" r="0.3"/>
			<circle cx="774.5" cy="305.7" r="0.3"/>
			<circle cx="776.3" cy="306.3" r="0.3"/>
			<circle cx="779.5" cy="307" r="0.3"/>
			<circle cx="783" cy="307.4" r="0.3"/>
			<circle cx="786.5" cy="307.6" r="0.3"/>
			<circle cx="791.7" cy="306.9" r="0.3"/>
			<circle cx="790" cy="307.3" r="0.3"/>
			<circle cx="794.8" cy="306.3" r="0.3"/>
			<circle cx="793.3" cy="306.6" r="0.3"/>
			<circle cx="796.5" cy="305.7" r="0.3"/>
			<circle cx="778" cy="306.7" r="0.3"/>
			<circle cx="781.3" cy="307.3" r="0.3"/>
			<circle cx="785" cy="307.6" r="0.3"/>
			<circle cx="788.3" cy="307.6" r="0.3"/>
		</g>
		<g class="st13">
			<circle cx="773" cy="306.7" r="0.3"/>
			<circle cx="774.5" cy="307.1" r="0.3"/>
			<circle cx="776.3" cy="307.7" r="0.3"/>
			<circle cx="779.5" cy="308.4" r="0.3"/>
			<circle cx="783" cy="308.8" r="0.3"/>
			<circle cx="786.5" cy="309" r="0.3"/>
			<circle cx="791.7" cy="308.3" r="0.3"/>
			<circle cx="790" cy="308.7" r="0.3"/>
			<circle cx="794.8" cy="307.7" r="0.3"/>
			<circle cx="793.3" cy="308" r="0.3"/>
			<circle cx="796.5" cy="307.1" r="0.3"/>
			<circle cx="778" cy="308.1" r="0.3"/>
			<circle cx="781.3" cy="308.7" r="0.3"/>
			<circle cx="785" cy="309" r="0.3"/>
			<circle cx="788.3" cy="309" r="0.3"/>
		</g>
		<g class="st13">
			<circle cx="773" cy="308.1" r="0.3"/>
			<circle cx="774.5" cy="308.5" r="0.3"/>
			<circle cx="776.3" cy="309.1" r="0.3"/>
			<circle cx="779.5" cy="309.8" r="0.3"/>
			<circle cx="783" cy="310.3" r="0.3"/>
			<circle cx="786.5" cy="310.4" r="0.3"/>
			<circle cx="791.7" cy="309.7" r="0.3"/>
			<circle cx="790" cy="310.1" r="0.3"/>
			<circle cx="794.8" cy="309.1" r="0.3"/>
			<circle cx="793.3" cy="309.4" r="0.3"/>
			<circle cx="796.5" cy="308.5" r="0.3"/>
			<circle cx="778" cy="309.5" r="0.3"/>
			<circle cx="781.3" cy="310.1" r="0.3"/>
			<circle cx="785" cy="310.4" r="0.3"/>
			<circle cx="788.3" cy="310.4" r="0.3"/>
		</g>
		<g class="st13">
			<circle cx="773" cy="309.6" r="0.3"/>
			<circle cx="774.5" cy="310" r="0.3"/>
			<circle cx="776.3" cy="310.6" r="0.3"/>
			<circle cx="779.5" cy="311.3" r="0.3"/>
			<circle cx="783" cy="311.7" r="0.3"/>
			<circle cx="786.5" cy="311.8" r="0.3"/>
			<circle cx="791.7" cy="311.1" r="0.3"/>
			<circle cx="790" cy="311.6" r="0.3"/>
			<circle cx="794.8" cy="310.6" r="0.3"/>
			<circle cx="793.3" cy="310.8" r="0.3"/>
			<circle cx="796.5" cy="310" r="0.3"/>
			<circle cx="778" cy="311" r="0.3"/>
			<circle cx="781.3" cy="311.6" r="0.3"/>
			<circle cx="785" cy="311.8" r="0.3"/>
			<circle cx="788.3" cy="311.8" r="0.3"/>
		</g>
		<g class="st13">
			<circle cx="773" cy="311" r="0.3"/>
			<circle cx="774.5" cy="311.4" r="0.3"/>
			<circle cx="776.3" cy="312" r="0.3"/>
			<circle cx="779.5" cy="312.7" r="0.3"/>
			<circle cx="783" cy="313.1" r="0.3"/>
			<circle cx="786.5" cy="313.3" r="0.3"/>
			<circle cx="791.7" cy="312.6" r="0.3"/>
			<circle cx="790" cy="313" r="0.3"/>
			<circle cx="794.8" cy="312" r="0.3"/>
			<circle cx="793.3" cy="312.3" r="0.3"/>
			<circle cx="796.5" cy="311.4" r="0.3"/>
			<circle cx="778" cy="312.4" r="0.3"/>
			<circle cx="781.3" cy="313" r="0.3"/>
			<circle cx="785" cy="313.3" r="0.3"/>
			<circle cx="788.3" cy="313.3" r="0.3"/>
		</g>
		<g class="st13">
			<circle cx="773" cy="312.4" r="0.3"/>
			<circle cx="774.5" cy="312.8" r="0.3"/>
			<circle cx="776.3" cy="313.4" r="0.3"/>
			<circle cx="779.5" cy="314.1" r="0.3"/>
			<circle cx="783" cy="314.5" r="0.3"/>
			<circle cx="786.5" cy="314.7" r="0.3"/>
			<circle cx="791.7" cy="314" r="0.3"/>
			<circle cx="790" cy="314.4" r="0.3"/>
			<circle cx="794.8" cy="313.4" r="0.3"/>
			<circle cx="793.3" cy="313.7" r="0.3"/>
			<circle cx="796.5" cy="312.8" r="0.3"/>
			<circle cx="778" cy="313.8" r="0.3"/>
			<circle cx="781.3" cy="314.4" r="0.3"/>
			<circle cx="785" cy="314.7" r="0.3"/>
			<circle cx="788.3" cy="314.7" r="0.3"/>
		</g>
		<g class="st13">
			<circle cx="773" cy="313.8" r="0.3"/>
			<circle cx="774.5" cy="314.3" r="0.3"/>
			<circle cx="776.3" cy="314.8" r="0.3"/>
			<circle cx="779.5" cy="315.5" r="0.3"/>
			<circle cx="783" cy="316" r="0.3"/>
			<circle cx="786.5" cy="316.1" r="0.3"/>
			<circle cx="791.7" cy="315.4" r="0.3"/>
			<circle cx="790" cy="315.8" r="0.3"/>
			<circle cx="794.8" cy="314.8" r="0.3"/>
			<circle cx="793.3" cy="315.1" r="0.3"/>
			<circle cx="796.5" cy="314.3" r="0.3"/>
			<circle cx="778" cy="315.2" r="0.3"/>
			<circle cx="781.3" cy="315.8" r="0.3"/>
			<circle cx="785" cy="316.1" r="0.3"/>
			<circle cx="788.3" cy="316.1" r="0.3"/>
		</g>
		<g class="st13">
			<circle cx="773" cy="315.3" r="0.3"/>
			<circle cx="774.5" cy="315.7" r="0.3"/>
			<circle cx="776.3" cy="316.3" r="0.3"/>
			<circle cx="779.5" cy="317" r="0.3"/>
			<circle cx="783" cy="317.4" r="0.3"/>
			<circle cx="786.5" cy="317.6" r="0.3"/>
			<circle cx="791.7" cy="316.8" r="0.3"/>
			<circle cx="790" cy="317.3" r="0.3"/>
			<circle cx="794.8" cy="316.3" r="0.3"/>
			<circle cx="793.3" cy="316.6" r="0.3"/>
			<circle cx="796.5" cy="315.7" r="0.3"/>
			<circle cx="778" cy="316.7" r="0.3"/>
			<circle cx="781.3" cy="317.3" r="0.3"/>
			<circle cx="785" cy="317.6" r="0.3"/>
			<circle cx="788.3" cy="317.6" r="0.3"/>
		</g>
		<g class="st13">
			<circle cx="773" cy="316.7" r="0.3"/>
			<circle cx="774.5" cy="317.1" r="0.3"/>
			<circle cx="776.3" cy="317.7" r="0.3"/>
			<circle cx="779.5" cy="318.4" r="0.3"/>
			<circle cx="783" cy="318.8" r="0.3"/>
			<circle cx="786.5" cy="319" r="0.3"/>
			<circle cx="791.7" cy="318.3" r="0.3"/>
			<circle cx="790" cy="318.7" r="0.3"/>
			<circle cx="794.8" cy="317.7" r="0.3"/>
			<circle cx="793.3" cy="318" r="0.3"/>
			<circle cx="796.5" cy="317.1" r="0.3"/>
			<circle cx="778" cy="318.1" r="0.3"/>
			<circle cx="781.3" cy="318.7" r="0.3"/>
			<circle cx="785" cy="319" r="0.3"/>
			<circle cx="788.3" cy="319" r="0.3"/>
		</g>
		<g class="st13">
			<circle cx="773" cy="318.1" r="0.3"/>
			<circle cx="774.5" cy="318.5" r="0.3"/>
			<circle cx="776.3" cy="319.1" r="0.3"/>
			<circle cx="779.5" cy="319.8" r="0.3"/>
			<circle cx="783" cy="320.2" r="0.3"/>
			<circle cx="786.5" cy="320.4" r="0.3"/>
			<circle cx="791.7" cy="319.7" r="0.3"/>
			<circle cx="790" cy="320.1" r="0.3"/>
			<circle cx="794.8" cy="319.1" r="0.3"/>
			<circle cx="793.3" cy="319.4" r="0.3"/>
			<circle cx="796.5" cy="318.5" r="0.3"/>
			<circle cx="778" cy="319.5" r="0.3"/>
			<circle cx="781.3" cy="320.1" r="0.3"/>
			<circle cx="785" cy="320.4" r="0.3"/>
			<circle cx="788.3" cy="320.4" r="0.3"/>
		</g>
		<g class="st13">
			<circle cx="773" cy="319.6" r="0.3"/>
			<circle cx="774.5" cy="320" r="0.3"/>
			<circle cx="776.3" cy="320.5" r="0.3"/>
			<circle cx="779.5" cy="321.2" r="0.3"/>
			<circle cx="783" cy="321.7" r="0.3"/>
			<circle cx="786.5" cy="321.8" r="0.3"/>
			<circle cx="791.7" cy="321.1" r="0.3"/>
			<circle cx="790" cy="321.5" r="0.3"/>
			<circle cx="794.8" cy="320.5" r="0.3"/>
			<circle cx="793.3" cy="320.8" r="0.3"/>
			<circle cx="796.5" cy="320" r="0.3"/>
			<circle cx="778" cy="321" r="0.3"/>
			<circle cx="781.3" cy="321.5" r="0.3"/>
			<circle cx="785" cy="321.8" r="0.3"/>
			<circle cx="788.3" cy="321.8" r="0.3"/>
		</g>
		<g class="st13">
			<circle cx="773" cy="321" r="0.3"/>
			<circle cx="774.5" cy="321.4" r="0.3"/>
			<circle cx="776.3" cy="322" r="0.3"/>
			<circle cx="779.5" cy="322.7" r="0.3"/>
			<circle cx="783" cy="323.1" r="0.3"/>
			<circle cx="786.5" cy="323.3" r="0.3"/>
			<circle cx="791.7" cy="322.6" r="0.3"/>
			<circle cx="790" cy="323" r="0.3"/>
			<circle cx="794.8" cy="322" r="0.3"/>
			<circle cx="793.3" cy="322.3" r="0.3"/>
			<circle cx="796.5" cy="321.4" r="0.3"/>
			<circle cx="778" cy="322.4" r="0.3"/>
			<circle cx="781.3" cy="323" r="0.3"/>
			<circle cx="785" cy="323.3" r="0.3"/>
			<circle cx="788.3" cy="323.3" r="0.3"/>
		</g>
		<g class="st13">
			<circle cx="773" cy="322.4" r="0.3"/>
			<circle cx="774.5" cy="322.8" r="0.3"/>
			<circle cx="776.3" cy="323.4" r="0.3"/>
			<circle cx="779.5" cy="324.1" r="0.3"/>
			<circle cx="783" cy="324.5" r="0.3"/>
			<circle cx="786.5" cy="324.7" r="0.3"/>
			<circle cx="791.7" cy="324" r="0.3"/>
			<circle cx="790" cy="324.4" r="0.3"/>
			<circle cx="794.8" cy="323.4" r="0.3"/>
			<circle cx="793.3" cy="323.7" r="0.3"/>
			<circle cx="796.5" cy="322.8" r="0.3"/>
			<circle cx="778" cy="323.8" r="0.3"/>
			<circle cx="781.3" cy="324.4" r="0.3"/>
			<circle cx="785" cy="324.7" r="0.3"/>
			<circle cx="788.3" cy="324.7" r="0.3"/>
		</g>
		<g class="st13">
			<circle cx="773" cy="323.8" r="0.3"/>
			<circle cx="774.5" cy="324.2" r="0.3"/>
			<circle cx="776.3" cy="324.8" r="0.3"/>
			<circle cx="779.5" cy="325.5" r="0.3"/>
			<circle cx="783" cy="325.9" r="0.3"/>
			<circle cx="786.5" cy="326.1" r="0.3"/>
			<circle cx="791.7" cy="325.4" r="0.3"/>
			<circle cx="790" cy="325.8" r="0.3"/>
			<circle cx="794.8" cy="324.8" r="0.3"/>
			<circle cx="793.3" cy="325.1" r="0.3"/>
			<circle cx="796.5" cy="324.2" r="0.3"/>
			<circle cx="778" cy="325.2" r="0.3"/>
			<circle cx="781.3" cy="325.8" r="0.3"/>
			<circle cx="785" cy="326.1" r="0.3"/>
			<circle cx="788.3" cy="326.1" r="0.3"/>
		</g>
		<g class="st13">
			<circle cx="773" cy="325.3" r="0.3"/>
			<circle cx="774.5" cy="325.7" r="0.3"/>
			<circle cx="776.3" cy="326.3" r="0.3"/>
			<circle cx="779.5" cy="327" r="0.3"/>
			<circle cx="783" cy="327.4" r="0.3"/>
			<circle cx="786.5" cy="327.5" r="0.3"/>
			<circle cx="791.7" cy="326.8" r="0.3"/>
			<circle cx="790" cy="327.2" r="0.3"/>
			<circle cx="794.8" cy="326.3" r="0.3"/>
			<circle cx="793.3" cy="326.5" r="0.3"/>
			<circle cx="796.5" cy="325.7" r="0.3"/>
			<circle cx="778" cy="326.7" r="0.3"/>
			<circle cx="781.3" cy="327.2" r="0.3"/>
			<circle cx="785" cy="327.5" r="0.3"/>
			<circle cx="788.3" cy="327.5" r="0.3"/>
		</g>
		<g class="st13">
			<circle cx="773" cy="326.7" r="0.3"/>
			<circle cx="774.5" cy="327.1" r="0.3"/>
			<circle cx="776.3" cy="327.7" r="0.3"/>
			<circle cx="779.5" cy="328.4" r="0.3"/>
			<circle cx="783" cy="328.8" r="0.3"/>
			<circle cx="786.5" cy="329" r="0.3"/>
			<circle cx="791.7" cy="328.3" r="0.3"/>
			<circle cx="790" cy="328.7" r="0.3"/>
			<circle cx="794.8" cy="327.7" r="0.3"/>
			<circle cx="793.3" cy="328" r="0.3"/>
			<circle cx="796.5" cy="327.1" r="0.3"/>
			<circle cx="778" cy="328.1" r="0.3"/>
			<circle cx="781.3" cy="328.7" r="0.3"/>
			<circle cx="785" cy="329" r="0.3"/>
			<circle cx="788.3" cy="329" r="0.3"/>
		</g>
		<g class="st13">
			<circle cx="773" cy="328.1" r="0.3"/>
			<circle cx="774.5" cy="328.5" r="0.3"/>
			<circle cx="776.3" cy="329.1" r="0.3"/>
			<circle cx="779.5" cy="329.8" r="0.3"/>
			<circle cx="783" cy="330.2" r="0.3"/>
			<circle cx="786.5" cy="330.4" r="0.3"/>
			<circle cx="791.7" cy="329.7" r="0.3"/>
			<circle cx="790" cy="330.1" r="0.3"/>
			<circle cx="794.8" cy="329.1" r="0.3"/>
			<circle cx="793.3" cy="329.4" r="0.3"/>
			<circle cx="796.5" cy="328.5" r="0.3"/>
			<circle cx="778" cy="329.5" r="0.3"/>
			<circle cx="781.3" cy="330.1" r="0.3"/>
			<circle cx="785" cy="330.4" r="0.3"/>
			<circle cx="788.3" cy="330.4" r="0.3"/>
		</g>
		<g class="st13">
			<circle cx="773" cy="329.5" r="0.3"/>
			<circle cx="774.5" cy="330" r="0.3"/>
			<circle cx="776.3" cy="330.5" r="0.3"/>
			<circle cx="779.5" cy="331.2" r="0.3"/>
			<circle cx="783" cy="331.7" r="0.3"/>
			<circle cx="786.5" cy="331.8" r="0.3"/>
			<circle cx="791.7" cy="331.1" r="0.3"/>
			<circle cx="790" cy="331.5" r="0.3"/>
			<circle cx="794.8" cy="330.5" r="0.3"/>
			<circle cx="793.3" cy="330.8" r="0.3"/>
			<circle cx="796.5" cy="330" r="0.3"/>
			<circle cx="778" cy="330.9" r="0.3"/>
			<circle cx="781.3" cy="331.5" r="0.3"/>
			<circle cx="785" cy="331.8" r="0.3"/>
			<circle cx="788.3" cy="331.8" r="0.3"/>
		</g>
		<g class="st13">
			<circle cx="773" cy="331" r="0.3"/>
			<circle cx="774.5" cy="331.4" r="0.3"/>
			<circle cx="776.3" cy="332" r="0.3"/>
			<circle cx="779.5" cy="332.7" r="0.3"/>
			<circle cx="783" cy="333.1" r="0.3"/>
			<circle cx="786.5" cy="333.2" r="0.3"/>
			<circle cx="791.7" cy="332.5" r="0.3"/>
			<circle cx="790" cy="333" r="0.3"/>
			<circle cx="794.8" cy="332" r="0.3"/>
			<circle cx="793.3" cy="332.3" r="0.3"/>
			<circle cx="796.5" cy="331.4" r="0.3"/>
			<circle cx="778" cy="332.4" r="0.3"/>
			<circle cx="781.3" cy="333" r="0.3"/>
			<circle cx="785" cy="333.2" r="0.3"/>
			<circle cx="788.3" cy="333.2" r="0.3"/>
		</g>
		<g class="st13">
			<circle cx="773" cy="332.4" r="0.3"/>
			<circle cx="774.5" cy="332.8" r="0.3"/>
			<circle cx="776.3" cy="333.4" r="0.3"/>
			<circle cx="779.5" cy="334.1" r="0.3"/>
			<circle cx="783" cy="334.5" r="0.3"/>
			<circle cx="786.5" cy="334.7" r="0.3"/>
			<circle cx="791.7" cy="334" r="0.3"/>
			<circle cx="790" cy="334.4" r="0.3"/>
			<circle cx="794.8" cy="333.4" r="0.3"/>
			<circle cx="793.3" cy="333.7" r="0.3"/>
			<circle cx="796.5" cy="332.8" r="0.3"/>
			<circle cx="778" cy="333.8" r="0.3"/>
			<circle cx="781.3" cy="334.4" r="0.3"/>
			<circle cx="785" cy="334.7" r="0.3"/>
			<circle cx="788.3" cy="334.7" r="0.3"/>
		</g>
		<g class="st13">
			<circle cx="773" cy="333.8" r="0.3"/>
			<circle cx="774.5" cy="334.2" r="0.3"/>
			<circle cx="776.3" cy="334.8" r="0.3"/>
			<circle cx="779.5" cy="335.5" r="0.3"/>
			<circle cx="783" cy="335.9" r="0.3"/>
			<circle cx="786.5" cy="336.1" r="0.3"/>
			<circle cx="791.7" cy="335.4" r="0.3"/>
			<circle cx="790" cy="335.8" r="0.3"/>
			<circle cx="794.8" cy="334.8" r="0.3"/>
			<circle cx="793.3" cy="335.1" r="0.3"/>
			<circle cx="796.5" cy="334.2" r="0.3"/>
			<circle cx="778" cy="335.2" r="0.3"/>
			<circle cx="781.3" cy="335.8" r="0.3"/>
			<circle cx="785" cy="336.1" r="0.3"/>
			<circle cx="788.3" cy="336.1" r="0.3"/>
		</g>
		<g class="st13">
			<circle cx="773" cy="335.3" r="0.3"/>
			<circle cx="774.5" cy="335.7" r="0.3"/>
			<circle cx="776.3" cy="336.2" r="0.3"/>
			<circle cx="779.5" cy="336.9" r="0.3"/>
			<circle cx="783" cy="337.4" r="0.3"/>
			<circle cx="786.5" cy="337.5" r="0.3"/>
			<circle cx="791.7" cy="336.8" r="0.3"/>
			<circle cx="790" cy="337.2" r="0.3"/>
			<circle cx="794.8" cy="336.2" r="0.3"/>
			<circle cx="793.3" cy="336.5" r="0.3"/>
			<circle cx="796.5" cy="335.7" r="0.3"/>
			<circle cx="778" cy="336.7" r="0.3"/>
			<circle cx="781.3" cy="337.2" r="0.3"/>
			<circle cx="785" cy="337.5" r="0.3"/>
			<circle cx="788.3" cy="337.5" r="0.3"/>
		</g>
		<path class="st3" d="M819.1,238.9c0,0,8.5-3.2,11.3,3.4l0.8,0.2l1.8,0.5c4.5-6.7,16.4,0,16.4,0l16.7,7.4l-0.6,1l-16.7-5.8
			c0,0-2.2,6.8-5.1,8.5c-2.9,1.6-7.6-0.9-7.6-0.9c-2.9-1.2-3.2-6.3-3.1-8.8l-2.5-0.5c-0.2,2.5-1.1,7.3-5.6,7.8
			c-6.1,0.7-6.6-4.7-6.6-4.7S818.1,240,819.1,238.9z"/>
		<path class="st10" d="M825.2,238.9c-0.3,0.6-0.7,1.5-0.1,1.9c0.3,0.2,0.6,0.2,0.8,0.1c1.8-0.4,2.7-2.3,3.5-4
			c0.8-1.7,1.9-3.6,3.7-3.7c2.2-0.2,4.4,2.2,6.2,0.9c0.5-0.4,0.9-1,1.5-1.3c0.4-0.2,0.9-0.2,1.4-0.1c4.2,0.7,7.4,4.1,7.9,8.3
			c0.1,0.9,0.3,2,1.1,2.1c0.3,0,0.6,0,1-0.1c1.6-0.2,2.6,1.7,3.1,3.2c0.7,2.1,1.4,4.4,1,6.6c-0.3,1.7-1.3,3.3-1.4,5.1
			c0,1.5,0.6,2.8,1.2,4.2c0.6,1.3,1.6,2.9,3,2.7c1.2-0.2,1.8-1.4,2.4-2.5c0.6-1.1,1.6-2.2,2.7-1.9c0.5,0.1,1,0.6,1.5,0.3
			c0.2-0.2,0.4-0.5,0.4-0.8c0.6-2.4-0.2-5.2,0.9-7.4c0.9-1.7,2.8-2.6,4.3-3.8c5.3-4.2,6.1-11.9,1.9-17.2c-0.1-0.1-0.2-0.2-0.3-0.3
			c-1.6-1.9-3.9-3.6-4.1-6c-0.1-1.9,1.2-3.6,1.2-5.5s-1.2-3.5-2.5-4.7c-4-3.6-9.4-5.1-14.7-3.9c-1.4,0.3-2.7,0.8-4.1,0.7
			c-1.6-0.2-2.9-1.2-4.4-2c-4.7-2.4-11.1-0.7-14,3.8c-1.7,2.6-2.3,5.9-4.8,7.8c-1.6,1.2-4,1.6-4.9,3.4c-0.5,1.1-0.4,2.4-0.2,3.6
			c0.3,2,1.2,3.8,2.7,5.1C824.9,235,826.2,236.6,825.2,238.9z"/>
		<g class="st14">
			<path d="M869.8,221.9c0.2-0.5,0.3-1,0.4-1.5C870,220.9,869.9,221.4,869.8,221.9z"/>
			<path d="M825.5,237.4c0.1-0.3,0.2-0.6,0.3-0.9c1-2.3-0.3-3.9-1.8-5.4c-1.5-1.3-2.4-3.1-2.7-5.1c-0.1-0.5-0.1-1.1-0.1-1.6
				c-0.1,0.2-0.2,0.3-0.3,0.5c-0.5,1.1-0.4,2.4-0.2,3.6c0.3,2,1.2,3.8,2.7,5.1C824.5,234.6,825.6,235.9,825.5,237.4z"/>
			<path d="M865,258.1c-1.2-0.3-2.2,0.8-2.7,1.9s-1.2,2.3-2.4,2.5c-1.4,0.2-2.4-1.4-3-2.7c-0.6-1.3-1.2-2.7-1.2-4.2
				c0-0.2,0-0.3,0-0.5c-0.4,0.9-0.7,1.9-0.7,3c0,1.5,0.6,2.8,1.2,4.2c0.6,1.3,1.6,2.9,3,2.7c1.2-0.2,1.8-1.4,2.4-2.5
				c0.6-1.1,1.6-2.2,2.7-1.9c0.5,0.1,1,0.6,1.5,0.3c0.2-0.2,0.4-0.5,0.4-0.8c0.1-0.5,0.2-1.1,0.2-1.7
				C866,258.6,865.5,258.3,865,258.1z"/>
			<path d="M872.2,246.4c-1.5,1.2-3.4,2.1-4.3,3.8c-0.4,0.7-0.6,1.5-0.6,2.4c0.9-1.6,2.7-2.6,4.2-3.7c2.3-1.9,3.9-4.5,4.4-7.5
				C875.1,243.4,873.8,245.1,872.2,246.4z"/>
			<path d="M856.4,252.6c0.3-0.7,0.5-1.4,0.7-2.2c0.4-2.2-0.3-4.4-1-6.6c-0.5-1.6-1.5-3.4-3.1-3.2c-0.3,0.1-0.6,0.1-1,0.1
				c-0.9-0.1-1-1.2-1.1-2.1c-0.5-4.2-3.7-7.6-7.9-8.3c-0.5-0.1-0.9-0.1-1.4,0.1c-0.6,0.3-0.9,0.9-1.5,1.3c-1.8,1.2-4-1.1-6.2-0.9
				c-1.8,0.1-3,2-3.7,3.7c-0.8,1.7-1.7,3.6-3.5,4c-0.3,0.1-0.6,0.1-0.8-0.1c-0.2-0.1-0.3-0.3-0.3-0.5c-0.1,0.4-0.2,0.7-0.3,1.1
				c-0.3,0.6-0.7,1.5-0.1,1.9c0.3,0.2,0.6,0.2,0.8,0.1c1.8-0.4,2.7-2.3,3.5-4c0.8-1.7,1.9-3.6,3.7-3.7c2.2-0.2,4.4,2.2,6.2,0.9
				c0.5-0.4,0.9-1,1.5-1.3c0.4-0.2,0.9-0.2,1.4-0.1c4.2,0.7,7.4,4.1,7.9,8.3c0.1,0.9,0.3,2,1.1,2.1c0.3,0,0.6,0,1-0.1
				c1.6-0.2,2.6,1.7,3.1,3.2C856,248.4,856.7,250.5,856.4,252.6z"/>
		</g>
	</g>
	<g class="st1">
		<path class="st2" d="M200.4,198.7c0,0.6,0,1.2,0,1.7c0.2,6.3,1,12.6,2.2,18.9c3.6,18.5,11,37.1,19.8,54.7c0.1,0.3,0.3,0.6,0.4,0.8
			c0.2,0.4,0.4,0.8,0.6,1.2c0.4,0.9,0.8,1.7,1.3,2.5l1,1.9l0,0c0.2,0.4,0.5,0.9,0.7,1.3c0.1,0.3,0.3,0.6,0.4,0.8
			c2.4,4.6,5.1,9.2,8,13.5l0.3,0.5c3.6,5.4,7.9,10.5,12.7,14.9c8.4,7.7,19.1,13.3,30.5,16.5c0.4,0.1,0.8,0.2,1.2,0.3
			c0.7,0.2,1.5,0.4,2.3,0.6c0.5,0.1,1,0.2,1.6,0.3c3.6,0.8,7.3,1.3,11,1.6c2,0.2,4,0.2,6,0.2h0.9c2.5,0,5-0.2,7.4-0.4l0.4,0
			c6.7-0.7,13.2-2.5,19.4-5.2c1-0.4,1.9-0.9,2.9-1.4l0.5-0.2l0.2-0.1l0,0c3.2-1.7,6.2-3.6,9.1-5.7c3.4-2.4,6.6-5.1,9.7-7.8
			c4.6-4,9-8.3,13.1-12.9l0.2-0.2c1.8-2,3.4-4,5-6.1v0c1.1-1.5,2.2-2.9,3.2-4.4c0-0.1,0.1-0.1,0.1-0.2c1.5-2.2,2.9-4.5,4.1-6.8
			l0.3-0.5c0.9-1.7,1.7-3.5,2.5-5.2c4.3-10,6.2-20.8,7.3-31.7c2.1-21.9,0.9-44.5-4.9-66.4c-0.8-3-1.7-5.9-2.6-8.9
			c-0.1-0.4-0.3-0.8-0.4-1.2c-0.2-0.6-0.4-1.2-0.6-1.9c-0.1-0.3-0.2-0.5-0.3-0.8c-0.8-2.4-1.7-4.8-2.7-7.1l-0.5-1.2
			c-0.5-1.2-1.1-2.5-1.6-3.8c-0.5-1.2-1.1-2.3-1.6-3.5c-0.1-0.2-0.2-0.4-0.3-0.6c-4.8-9.8-11.1-19.4-20-26.6c-0.6-0.5-1.2-1-1.9-1.4
			c-0.9-0.7-1.9-1.4-2.9-2l-0.7-0.4l-0.3-0.2l-0.2-0.1l-0.1-0.1c-0.5-0.3-1-0.6-1.5-0.9c-0.5-0.3-1.1-0.6-1.6-0.8l0,0H342l-0.2-0.1
			c-0.4-0.2-0.8-0.4-1.2-0.6l-0.4-0.2l-0.2-0.1l-0.7-0.3c-3.2-1.3-6.5-2.3-9.9-3c-1.9-0.4-3.8-0.6-5.7-0.7c-2.9-0.2-5.8,0-8.7,0.5
			c-0.4,0.1-0.9,0.2-1.3,0.2c-3.6,0.7-7,2.2-10,4.4c-3.9,2.8-6.7,6.6-9.2,10.6l-0.3,0.4c-0.4,0.7-0.8,1.3-1.2,2
			c-1.4,2.3-2.9,4.7-4.4,7c-1.4,2.1-2.9,4.2-4.5,6.2c-1.6,2-3.3,3.9-5.2,5.7c-0.3,0.3-0.6,0.5-0.9,0.8c-3.5,3.1-7.4,5.5-11.8,7.2
			c-3.9,1.5-8.1,2.1-12.1,1.3l0,0c-1.2-0.2-2.3-0.6-3.3-1.1c-2-0.9-4-1.8-6-2.5c-3.5-1.5-7.1-2.5-10.9-3.1l0,0
			c-3.9-0.5-7.8-0.1-11.5,1.2c-0.6,0.2-1.2,0.5-1.8,0.7c-2.7,1.2-5.2,2.9-7.3,4.9c-0.3,0.2-0.5,0.5-0.8,0.7
			c-5.4,5.6-8.4,13.2-10,20.8C201,184.2,200.3,191.5,200.4,198.7z"/>
		
			<linearGradient id="SVGID_1_" gradientUnits="userSpaceOnUse" x1="-4401.9487" y1="498.6617" x2="-4401.9487" y2="759.7201" gradientTransform="matrix(-1 0 0 -1 -4063.28 829.9)">
			<stop  offset="0" style="stop-color:#808080;stop-opacity:0.25"/>
			<stop  offset="0.54" style="stop-color:#808080;stop-opacity:0.12"/>
			<stop  offset="1" style="stop-color:#808080;stop-opacity:0.1"/>
		</linearGradient>
		<path class="st15" d="M279.7,326.7l-1.2,1.4c0.4,0.1,0.8,0.2,1.2,0.3c0.7,0.2,1.5,0.4,2.3,0.6c0.5,0.1,1,0.2,1.6,0.3
			c3.6,0.8,7.3,1.3,11,1.6c2,0.2,4,0.2,6,0.2c0.4-0.6,0.7-1.2,1-1.8c0.8-1.9,4-5.3,7.5-8.6c-0.1,0.6-0.1,0.9-0.1,0.9v0.2l0,8.9
			l0.4,0c6.7-0.7,13.2-2.5,19.4-5.2c1-0.4,1.9-0.9,2.9-1.4l0.5-0.2l0.2-0.1c0.4-2.1,0.8-4.2,1.1-5.8l0-0.2c0-0.2,0.1-0.4,0.1-0.6
			c0-0.2,0.1-0.4,0.1-0.6c0-0.2,0-0.3,0.1-0.4c0.2-1.1,0.3-1.8,0.3-1.8c0-0.3,0.1-0.7,0.1-1l0,0c0.2-1.9,1.1-3.7,2.4-5
			c0.5-0.6,0.9-1.2,1.2-2l0,0c0.7-2.1,0.6-4.9,0.5-6.1c0-0.4-0.1-0.7-0.1-0.7s2.4-1.2,3.8-5.1c0.3-0.8,0.5-1.6,0.7-2.5
			c1-5.5,4.1-17,4.5-18.4l0,0l0-0.1c0,0,0.1-0.2,0.2-0.6c0,0,0-0.1,0-0.1l0.1-0.1l0,0c1.4-3.8,6.8-19.4,6.4-29.8
			c-0.5-11.9,0.7-18.1,0.7-18.1l1.4-25.9v-0.3l0.1-1.5v-0.4c0.2,0.2,0.4,0.3,0.5,0.4l0.3,0.3l0.1,0.1c0,0,0-0.1,0-0.3
			c0.2,0.2,0.3,0.3,0.3,0.3s0.6-10,0.6-15.7c0-0.7,0-1.3,0-1.8c4.2-1.4,10.6-3.8,11-5c0.3-1,2.7-3.2,4.7-4.9l1.1-0.9l0.6-0.5
			c0.8-0.7,1.4-1.1,1.4-1.1c-0.2,0-0.3-0.1-0.4-0.2c0.2-0.1,0.5-0.2,0.7-0.4c0.6-0.3,1.2-0.7,2-1.2c3-2,6.6-5.1,8.7-8.1
			c1.1-1.7,1.8-3.3,1.5-4.8c0-0.1-0.1-0.3-0.1-0.4l8.6-12.4l1-1.4c0.6-0.9,0.5-2.1-0.2-2.9l0,0l-0.1,0l-0.4-0.2l0.1,0.1
			c-0.5-0.3-1.2-0.2-1.6,0.3l-0.1,0.2l-8.3,11.9l-1.5,2.1c-3.2-1-7.9,1.8-11.7,4.6c-1.3,1-2.6,2-3.5,2.9l-0.6,0.6
			c-0.3-0.6-0.5-1.1-0.5-1.1c-0.2,2-7.1,4.9-8.7,6c-0.7,0.4-1.6,0.7-2.4,0.8c0.2-7.5-5.5-15.3-5.5-15.3l-11.2-14.3l0,0l-0.7-0.9
			l-2.2-2.8c-0.2-0.9-0.2-1.8-0.2-2.7c0-1.5,0.2-2.9,0.6-4.3c0.1-0.2,0.1-0.5,0.2-0.7c0.2-0.6,0.5-1.3,0.8-1.9
			c0.1-0.2,0.2-0.5,0.4-0.7h0.1c-0.2,0.9-0.5,1.7-0.7,2.6c0,0.2-0.1,0.5-0.1,0.7l0,0.3c0,0.4-0.1,0.7,0,1.1c0,0,0,0.1,0,0.2
			c0.1,1.5,1.2,6.9,2.7,6.7c0.3,0,0.6-0.1,0.8-0.4c0.2-0.2,0.3-0.4,0.4-0.6c0.1-0.2,0.2-0.3,0.3-0.5c0.1-0.2,0.2-0.5,0.3-0.7
			c0.3-1.4,0.4-2.9,0.4-4.4c0,0.7-0.1,1.4-0.2,2c0.1-1.6,0-3.2-0.1-4.6c0-0.3,0-0.6,0-0.8c0-0.3,0-0.6,0-0.9l0,0c0-0.3,0-0.6,0-0.9
			h0.1h0.1c0,0.2,0,0.5,0,0.7c0-0.2,0-0.5,0-0.7h0.1h0.1c1.4-0.3,2.8-0.7,4.1-1.2c1.6-0.7,3.1-1.6,4.5-2.7c0.3,0,0.6-0.1,0.9-0.1
			c0.8-0.2,1.6-0.6,2.2-1.2l0.1-0.1c0.3,1,0.1,2-0.5,2.8c0,0,0,0.1-0.1,0.1h0.1c1.8-0.1,3.3-1.5,4-3.1c0-0.1,0.1-0.1,0.1-0.2
			c0.6-1.8,0.8-3.7,0.5-5.5c-0.3-1.9-0.4-3.7-0.4-5.6c0-0.5,0.1-0.9,0.1-1.4c0-0.1,0-0.1,0-0.2c0-0.5,0-1,0-1.5c0,0,0-0.1,0-0.1
			c0-0.3-0.1-0.5-0.1-0.8h0.1c0.4,0,0.8-0.2,1-0.5l0.1-0.1c0.1-0.1,0.3-0.3,0.4-0.4c0.1-0.2,0.3-0.4,0.3-0.6c0.2-0.5,0.3-1,0.4-1.5
			c0.5-2.1,0.8-4.2,0.7-6.4c0,0.6-0.1,1.3-0.2,2c0.2-2.5-0.2-4.9-1.8-6.7c-1.1-1.2-2.7-2-4.2-2.7c-0.5-0.2-1-0.5-1.4-1
			c-0.3-0.5-0.4-1.1-0.4-1.7c-0.5-3.6-3.9-6.1-7.3-7.6c-4.4-1.9-9.6-2.7-13.8-0.5c-2,1.1-3.6,2.8-5.5,4.2c-2.3,1.8-5,3-7.5,4.5
			c-2.5,1.5-4.9,3.5-6.1,6.1c-1.2,2.6-1,5.7-0.7,8.7c0.2,1.5,0.4,3,0.5,4.5c0,0.1,0,0.2,0,0.4c0.1,3.4-0.5,6.9-1.9,10
			c-1.4,3.3-3.6,6.1-6.4,8.2c-0.7,0.4-1.3,1-1.8,1.6c-0.5,0.6-0.6,1.5-0.1,2.2c0.1,0.2,0.3,0.3,0.5,0.5c0.2,0.1,0.4,0.3,0.6,0.5
			c0.1,0.2,0.2,0.3,0.3,0.5c0.2,0.6,0.2,1.2,0,1.8c0,0.1,0,0.1,0,0.2l-0.1,0.3c-0.8,3.1-2.5,5.9-4.8,8.1c0.1,0.7,1,1,1.7,1.1l0,0
			c1.9,0.3,3.9,0.4,5.9,0.4h0.8c-0.1,0.2-0.2,0.5-0.3,0.7l0,0c-0.2,0.5-0.4,1.1-0.6,1.7l0,0c-0.9,2.6-1.7,5.9-1.4,8
			c0.7,4.2,2.9,23.2,1.8,26.5s1.7,27.7,1.7,27.7s0.1,0.4,0.2,1c0.2,0.8,0.5,2.1,0.8,3.6c0,0.1,0,0.1-0.1,0.2
			c-1.7,3.9-3.6,8.3-4.5,10c-1.3,2.4-1.3,11.1,0.8,19.1c1.1,4.1,2.7,8,5,10.8c0,0,2.4,3.3,2.2,5c0,0.1-0.1,0.3-0.1,0.4
			c-0.5,1-0.2,2.5,0,3.3c0.1,0.4,0.2,0.6,0.2,0.6v0.6l1,23c0,2.4-0.2,4.8-0.5,7.2c-2.9,3.5-7.3,8.7-9.4,9.6
			c-3.2,1.3-27.2,30.5-27.2,30.5s0.2,0.3,0.6,0.9L279.7,326.7z"/>
		<path class="st16" d="M375.9,169c-0.7,0.4-1.5,0.7-2.3,0.9c-3,0.1-5.5-8-5.5-8s0.9-0.9,2.2-2.1c4-3.6,12.5-10.2,16.4-6.5
			C391.2,157.4,381.1,166.2,375.9,169z"/>
		<path class="st16" d="M283.4,329.4c3.6,0.8,7.3,1.3,11,1.6c-1.6-2.8-11.8-6.1-11.8-6.1l-1.4,1.6l-0.7,0.8l-1,1.2
			c0.7,0.2,1.5,0.4,2.3,0.6C282.4,329.2,282.9,329.3,283.4,329.4z"/>
		<path class="st0" d="M375.9,169c-0.7,0.4-1.5,0.7-2.3,0.9c-3,0.1-5.5-8-5.5-8s0.9-0.9,2.2-2.1C371.3,162,374,167.9,375.9,169z"/>
		<path class="st17" d="M356.6,166.1c0,0,2.5,0.2,4.1-0.9s8.4-4,8.6-5.9c0,0,4.1,9.9,6.4,10.3c0,0-7.1,5.6-7.6,7.3
			c-0.5,1.8-14.3,6.1-14.3,6.1L356.6,166.1z"/>
		<path class="st18" d="M356.6,166.1c0,0,2.5,0.2,4.1-0.9s8.4-4,8.6-5.9c0,0,4.1,9.9,6.4,10.3c0,0-7.1,5.6-7.6,7.3
			c-0.5,1.8-14.3,6.1-14.3,6.1L356.6,166.1z"/>
		<path class="st0" d="M280.6,327.3c0.3,0.5,0.7,1.1,1.2,1.7c0.5,0.1,1,0.2,1.6,0.3c3.6,0.8,7.3,1.3,11,1.6
			c-1.6-2.8-11.8-6.1-11.8-6.1l-1.4,1.6L280.6,327.3z"/>
		<path class="st18" d="M280.7,325.6c0,0,0.2,0.3,0.6,0.9c0.7,1,1.4,2,2.2,2.9c3.6,0.8,7.3,1.3,11,1.6c2,0.2,4,0.2,6,0.2h0.9
			c0.2-0.4,0.4-0.8,0.6-1.2c0.8-1.8,3.7-5,6.8-8.1c0.1-0.2,0.3-0.3,0.5-0.5c4.5-4.4,9.4-8.6,9.4-8.6l0.5-30.3c0,0-1.1,1.4-2.6,3.4
			c-2.8,3.5-7.2,8.6-9.2,9.5C304.3,296.8,280.7,325.6,280.7,325.6z"/>
		<path class="st0" d="M280.7,325.6c0,0,0.2,0.3,0.6,0.9c0.7,1,1.4,2,2.2,2.9c3.6,0.8,7.3,1.3,11,1.6c2,0.2,4,0.2,6,0.2h0.9
			c0.2-0.4,0.4-0.8,0.6-1.2c0.8-1.8,3.7-5,6.8-8.1c0.1-0.2,0.3-0.3,0.5-0.5c4.5-4.4,9.4-8.6,9.4-8.6l0.5-30.3c0,0-1.1,1.4-2.6,3.4
			c-2.8,3.5-7.2,8.6-9.2,9.5C304.3,296.8,280.7,325.6,280.7,325.6z"/>
		<path class="st0" d="M293,321.3c2.6,0.3,5.3,0.3,7.9,0C305.6,320.9,302.1,323.7,293,321.3z"/>
		<path class="st0" d="M290.9,324.3c0,0,6.2,3.5,8.6,1.8C301.9,324.3,297.2,327.8,290.9,324.3z"/>
		<path class="st18" d="M315.8,249.9c0.2,0.5,0.3,1.2,0.1,1.7c-0.3,0.6-0.4,1.3-0.3,2c0,0.4,0.1,0.8,0.2,1.2
			c0.1,0.4,0.2,0.7,0.2,0.7l1,23.3c0,2.4-0.2,4.8-0.5,7.1c-0.3,2.5-0.9,5-1.9,6.5c-2.1,3.2-4.9,24.4-5.4,28.9l-0.1,0.9l0,8.4
			c6.7-0.7,13.2-2.5,19.4-5.2c1-0.4,1.9-0.9,2.9-1.4l0.5-0.2l0.2-0.1l0,0c0.4-2.2,0.8-4.2,1.1-5.8l0-0.2c0-0.2,0.1-0.4,0.1-0.6
			c0-0.2,0.1-0.4,0.1-0.6s0-0.3,0.1-0.4c0.1-0.7,0.2-1.1,0.2-1.1c0-0.6,0.1-1.2,0.2-1.7l0,0c0.3-1.6,1.1-3.1,2.2-4.3
			c0.7-0.8,1.2-1.7,1.3-2.8l0,0c0.4-2,0.4-4,0.2-5.9c0.1-0.1,0.2-0.2,0.3-0.2c0.7-0.5,2.7-2.2,3.7-5.8c0.2-0.5,0.3-1.1,0.4-1.6
			c1.1-5.8,4.5-18.4,4.5-18.4s0.1-0.3,0.4-1l0,0c0.1-0.2,0.2-0.4,0.3-0.7c0,0,0-0.1,0-0.1l0.1-0.1l0,0c1.8-5.1,6.3-19,5.9-28.4
			c-0.5-11.8,0.7-17.9,0.7-17.9l1.5-27.4v-0.4v-0.3l0.1-2.6l-13.6-0.4h-0.8L338,195h-0.1h-0.3l-4.4-0.1l-1.9-0.1l-3.5-0.1h-0.6h-0.7
			l-2.7-0.1l-7.9,4.6c0,0-0.3,0.8-0.8,2c-0.1,0.3-0.2,0.6-0.4,0.9c-0.1,0.3-0.3,0.7-0.4,1l-1.1,2.7c-0.1,0.3-0.3,0.6-0.4,1
			c-1.7,4-3.6,8.4-4.5,10.1c-1.2,2.2-1.2,9.9,0.4,17.4c1,4.6,2.7,9.1,5.2,12.2C314.7,247.6,315.3,248.7,315.8,249.9z"/>
		<path class="st0" d="M324.7,312.8c0,0,4.8,3.8,6.8,3.8C333.5,316.6,324.7,312.8,324.7,312.8z"/>
		<path class="st16" d="M353.7,153.4v7.8l-5.1-2.2l-5.1-2.2l-11.1-11c0,0-8.8-5.7-13.5-10.9c-2.7-3-4-5.8-1.7-7.3
			c1.1-0.8,2.2-1.7,3.1-2.7c2.4-2.8,4.4-5.8,6.1-9.1c0.1-0.1,0.1-0.3,0.2-0.4c2.3-4.2,3.8-7.8,3.8-7.8s6.5,2.1,10.6,5
			c0.3,0.2,0.7,0.5,1,0.7c2.3,1.9,3.5,4.1,1.3,6.3c-0.6,0.6-1.1,1.2-1.5,1.8l0,0c-0.3,0.5-0.7,1-0.9,1.5c-0.1,0.2-0.2,0.5-0.4,0.7
			c-1.4,2.9-1.9,6.2-1.4,9.4L353.7,153.4z"/>
		<path class="st10" d="M352.8,97.9c0.3,0.5,0.6,0.9,0.9,1.3c0.5,1,0.4,2.2,0.4,3.3c-0.1,1.8,0,3.5,0.3,5.3c0.4,1.5,1,3,1.1,4.6
			c0.1,2.3-1.1,4.4-2.2,6.3c1.2,0,2.4-0.6,3.2-1.5c0.3,1,0.1,2.1-0.6,2.9c1.9-0.1,3.4-1.5,4.1-3.3c0.6-1.8,0.8-3.6,0.5-5.5
			c-0.3-1.8-0.4-3.7-0.4-5.5c0.1-1,0.2-2,0.2-3c-0.2-2-1.4-3.7-2.6-5.4l-2.4-3.3c-0.2-0.3-0.4-0.5-0.7-0.6
			C352.4,92.6,352.2,96.8,352.8,97.9z"/>
		<path class="st0" d="M343.3,119.6c-0.6,0.6-1.1,1.2-1.5,1.8l0,0c-0.3,0.5-0.7,1-0.9,1.5c-0.1,0.2-0.2,0.5-0.4,0.7
			c-3.1-0.2-6.2-1.1-8.8-2.8c-2-1.2-3.7-2.8-5.1-4.7c-0.1-0.1-0.1-0.2-0.2-0.3c0.1-0.1,0.1-0.3,0.2-0.4c2.3-4.2,3.8-7.8,3.8-7.8
			s6.5,2.1,10.6,5c0.3,0.2,0.7,0.5,1,0.7C344.3,115.2,345.4,117.4,343.3,119.6z"/>
		<path class="st16" d="M360.1,104.4c0,9-6.4,16.6-15.2,18.3c-1.1,0.2-2.2,0.3-3.4,0.3h-0.1c-0.2,0-0.4,0-0.6,0
			c-3.3-0.1-6.4-1.1-9.2-2.8c-2-1.2-3.7-2.8-5.1-4.7c-6-8.3-4.3-19.9,4-25.9c8.3-6,19.9-4.3,25.9,4
			C358.8,96.7,360.1,100.5,360.1,104.4z"/>
		<path class="st0" d="M344,150.2c0,0,9.3,5.3,7,0.8l-12.2-18l0,0l13.8,17.8c0,0,8.8,12.1,4,20.5c0,0-0.7,7,0.1,8.6
			c0.8,1.6-0.2,19.2-0.2,19.2s-3.3-3.1-5.1-2.5c-1.8,0.6-14.2,1.6-14.2,1.6L344,150.2z"/>
		<path class="st0" d="M355.6,195.5l-0.2,3.3c-1.1-0.8-2.7-1.7-3.7-1.4c-1.8,0.6-14.2,1.7-14.2,1.7l0.6-4.1L355.6,195.5z"/>
		<path class="st10" d="M344.3,150.2c0,0,9.3,5.3,6.9,0.8l-12.2-18l0,0l13.8,17.8c0,0,8.8,12.1,4,20.5c0,0-0.7,7,0.1,8.6
			c0.8,1.6-0.2,19.2-0.2,19.2s-3.3-3.1-5.1-2.5c-1.8,0.6-14.2,1.6-14.2,1.6L344.3,150.2z"/>
		<path class="st0" d="M349.3,159.3c-0.5,5.7-2.9,12.4-2.9,12.4s-1.6,16.7-3.7,21.7c-2.1,4.9-1.2,11.8-2.4,24.4
			c-0.4,4.5-1.9,7.7-3.9,9.8c-3.2,3.5-7.9,4.2-11.5,4c-0.3,0-0.6,0-0.9-0.1c-5.9-0.6-11.5-29-11.5-29s-2.7-24.1-1.6-27.4
			c1.1-3.3-1.1-22.1-1.8-26.3c-0.4-2.6,0.9-6.9,1.9-9.7c0.6-1.6,1.1-2.7,1.1-2.7s2-6.4,5.3-9.7c0.9-0.9,2.2-1.5,3.5-1.5
			c1.5,0.1,3,0.5,4.4,1.4l0.1,0.1c0,0,21.4,21.9,23.4,27C349.5,155.1,349.5,157.1,349.3,159.3z"/>
		<path class="st18" d="M348.6,158.9c-0.5,5.7-2.9,12.4-2.9,12.4s-1.6,16.7-3.8,21.7c-2.1,4.9-1.2,11.8-2.4,24.4
			c-0.4,4.5-1.9,7.7-3.9,9.8c-3.2,3.5-7.9,4.2-11.5,4l-0.9-0.1c-5.9-0.6-11.5-29-11.5-29s-2.7-24.1-1.6-27.4
			c1.1-3.3-1.1-22.1-1.8-26.3c-0.4-2.6,0.9-6.9,1.9-9.7c0.6-1.6,1.1-2.7,1.1-2.7s2-6.4,5.3-9.7c0.9-0.9,2.2-1.5,3.5-1.5
			c1.5,0.1,3,0.5,4.4,1.4l0.2,0.1c0,0,21.4,21.9,23.4,27C348.8,154.7,348.8,156.8,348.6,158.9z"/>
		<path class="st0" d="M324.6,245.2c0,0-4.9,4.4-6.5,4.2C316.4,249.1,324.6,245.2,324.6,245.2z"/>
		<path class="st0" d="M325.9,249.3c0,0-5.1,2.4-6.7,2.7C317.7,252.4,323.9,248.7,325.9,249.3z"/>
		<path class="st0" d="M345.7,184.3c0,0,7.6,0.1,8.7,2.5S348.2,183.3,345.7,184.3z"/>
		<path class="st0" d="M344.6,188.4c0,0,5.8,1.2,7.6,2.7C354,192.5,344.6,188.4,344.6,188.4z"/>
		<path class="st0" d="M334.8,174c0,0-0.7,23.9-3.3,27C328.9,204.2,334.8,174,334.8,174z"/>
		<path class="st0" d="M328.3,241.7c0,0-4.8,21.1,4.9,22.4c9.8,1.3,6.8-24,6.8-24L328.3,241.7z"/>
		<path class="st16" d="M327.9,241.4c0,0-4.8,21.1,4.9,22.4c9.8,1.3,6.8-24,6.8-24L327.9,241.4z"/>
		<path class="st0" d="M360,102.3c-0.3-0.4-0.5-0.8-0.7-1.3c-1.3-2.7-4.6-1.4-7.1-0.1l-1.3,1.7c-0.6,0.7-1.1,1.5-1.5,2.3
			c-0.2,0.7-0.5,1.4-0.6,2.1c-0.3,1.2-0.8,2.3-1.3,3.5c-1.5,3.9-2.4,8-2.6,12.1c-1.1,0.2-2.2,0.3-3.4,0.3h-0.1v-0.1
			c0.1-0.5,0.2-0.9,0.3-1.4l0,0c0.5-2.7,0.6-5.4,0.2-8.1c0-0.1,0-0.1,0-0.2c-0.1-0.6-0.2-1.2-0.3-1.8c-0.2,0.4-0.4,0.8-0.7,1.2
			c-1.5,2.8-3,5.5-5.8,6.7c-1.1,0.4-2.3,0.7-3.5,0.8c-1.5,0.1-3,0.3-4.4,0.7c-0.5,0.1-0.9,0.4-1.3,0.8c-0.4,0.6-0.6,1.2-0.6,1.9
			c-0.2,0.9-0.4,1.8-0.7,2.7c-1.3,3.3-3.2,6.2-5.8,8.6l-0.6,0.6c-1.1,1.1-2.4,2-3.8,2.6c-1.3,0.4-2.7,0.7-4,0.6
			c0.6-1.6,1.1-2.7,1.1-2.7s2-6.4,5.3-9.7c0.9-0.9,2.2-1.5,3.5-1.5c2.4-2.9,4.6-6.1,6.3-9.5c-6.1-8.2-4.3-19.9,3.9-25.9
			c8.2-6.1,19.9-4.3,25.9,3.9C358.4,96,359.6,99.1,360,102.3L360,102.3z"/>
		<path class="st10" d="M361.1,87.9c-1.1-1.2-2.6-1.9-4.1-2.6c-0.5-0.2-1-0.5-1.3-1c-0.3-0.5-0.4-1.1-0.4-1.7
			c-0.5-3.6-3.8-6.1-7.2-7.5c-4.3-1.9-9.4-2.7-13.5-0.4c-2,1.1-3.6,2.8-5.4,4.2c-2.3,1.7-4.9,3-7.3,4.5c-2.4,1.5-4.7,3.5-5.9,6.1
			c-1.8,4.1-0.4,8.7-0.2,13.1c0.3,7-2.5,14.3-8.1,18.4c-0.7,0.4-1.3,0.9-1.8,1.6c-0.5,0.6-0.6,1.5-0.1,2.2c0.3,0.4,0.7,0.6,1.1,1
			c0.6,0.7,0.5,1.9,0.3,2.8c-0.8,3.1-2.4,5.9-4.7,8.1c0.1,0.7,1,1,1.7,1.1c1.9,0.3,3.8,0.4,5.8,0.4c3.1,0.3,6.1-0.9,8.1-3.3
			c3.4-3.2,6.3-7.3,7.1-11.9c0-0.7,0.2-1.4,0.6-1.9c0.4-0.4,0.8-0.6,1.3-0.8c2.6-0.9,5.5-0.4,8-1.5c3.2-1.4,4.8-4.8,6.5-8
			c0.1,0.6,0.2,1.2,0.3,1.8c0.5,3.2,0.3,6.5-0.5,9.7c-0.5,1.8-1.1,3.6-1.1,5.4c0,1.4,1.4,8.5,3.3,6.4c1.8-2.2,1.2-6.9,1.2-9.6
			c0-5,0.9-9.9,2.7-14.6c0.4-1.2,0.9-2.3,1.3-3.5c0.2-0.7,0.4-1.4,0.6-2.1c0.4-0.8,0.9-1.6,1.5-2.3l1.3-1.7c2.4-1.3,5.8-2.6,7.1,0.1
			c0.5,1,0.8,2.2,2.1,1.2c0.8-0.6,1-1.8,1.2-2.7C363,95.1,363.7,90.7,361.1,87.9z"/>
		<path class="st0" d="M336.3,152.7c-0.5-12.7-18.3-15.3-22.4-3.3c0,0.1-0.1,0.2-0.1,0.2c-2.7,8.1-1.5,28.7-1.5,28.7
			s0.4,13.8,1.7,18.4c1.3,4.6,4.9,17.8,4.9,19.9s3.4,10.2,4.8,10.8s2.2,5.2,2.5,6s1.4,11.6,1.4,11.6s13.3-0.8,13.5-2.9
			c0.2-2.1-2.9-12.5-2.9-12.5s-2.3-4.2-2.6-7.7c-0.3-3.4-2.2-5-1.8-7.3c0.3-2.3-1.1-3.5-1.1-5.1s-1.1-5.7-1.1-5.7s-2.2-1.8-1.9-3.9
			c0.4-2.1-3.2-6.4-2.2-7.9s1.2-5.3,1.2-5.3s1.2-17,2-21.6c0.8-4.6,5.7-12,5.7-12S336.3,153.1,336.3,152.7z"/>
		<path class="st0" d="M335.7,227.1c-3.2,3.5-7.9,4.2-11.5,4c-0.4-1.6-1-3.6-1.9-4c-1.4-0.6-4.8-8.7-4.8-10.8s-3.6-15.3-5-19.9
			c-1.3-4.6-1.6-18.4-1.6-18.4s-1.2-20.6,1.5-28.7c0-0.1,0.1-0.2,0.1-0.2c4.1-12,21.9-9.4,22.4,3.3c0,0.4,0,0.6,0,0.6
			s-4.8,7.4-5.7,12s-2,21.6-2,21.6s-0.2,3.8-1.2,5.3c-0.9,1.5,2.6,5.8,2.2,7.9s1.9,3.9,1.9,3.9s1.1,4.1,1.1,5.7s1.4,2.7,1.1,5.1
			c-0.4,2.4,1.5,3.9,1.8,7.3C334.3,223.6,334.9,225.4,335.7,227.1z"/>
		<path class="st18" d="M335.6,152.4c-0.5-12.7-18.3-15.3-22.4-3.3c0,0.1-0.1,0.2-0.1,0.2c-2.7,8.1-1.5,28.7-1.5,28.7
			s0.3,13.8,1.6,18.4c1.3,4.6,5,17.8,5,19.9s3.4,10.2,4.8,10.8c1.4,0.6,2.1,5.2,2.5,6c0.3,0.8,1.4,11.5,1.4,11.5s13.3-0.8,13.5-2.9
			c0.2-2.1-2.9-12.5-2.9-12.5s-2.3-4.2-2.6-7.7c-0.3-3.4-2.2-4.9-1.8-7.3c0.4-2.4-1.1-3.5-1.1-5.1s-1.1-5.7-1.1-5.7
			s-2.2-1.8-1.9-3.9c0.4-2.1-3.2-6.4-2.2-7.9c0.9-1.5,1.2-5.3,1.2-5.3s1.2-17,2-21.6c0.8-4.6,5.7-12,5.7-12S335.6,152.8,335.6,152.4
			z"/>
		<path class="st0" d="M313.7,185c0.4-0.4,7.1-7.8,9.2-5.1C325,182.5,313.7,185,313.7,185z"/>
		<path class="st0" d="M314.3,190.7c0.3-0.3,6.7-0.5,8.3-4.2C324.2,183,314.3,190.7,314.3,190.7z"/>
		<g class="st14">
			<path d="M307,125.6c0.2,0.2,0.3,0.4,0.4,0.6c0.3-0.8,0.1-1.7-0.4-2.4c-0.3-0.4-0.8-0.6-1.1-1l-0.1-0.1c-0.3,0.6-0.3,1.3,0.1,1.9
				C306.2,125,306.7,125.2,307,125.6z"/>
			<path d="M316,102.7c0-0.7,0-1.3,0-2c-0.1-2.4-0.6-4.9-0.7-7.3c-0.1,2.9,0.5,6,0.7,9C316,102.5,316,102.6,316,102.7z"/>
			<path d="M343.5,132.2c-1.6,1.9-2.9-3.6-3.2-5.8c0,0.4-0.1,0.8-0.1,1.1c0,1.4,1.4,8.5,3.3,6.4c1.2-1.5,1.4-3.9,1.3-6.2
				C344.7,129.5,344.4,131.1,343.5,132.2z"/>
			<path d="M341.8,112.4c0.1,0.9,0.2,1.9,0.3,2.8c0.1-1.5,0-3.1-0.3-4.6c-0.1-0.6-0.2-1.2-0.3-1.8c-1.7,3.2-3.3,6.6-6.5,8
				c-2.5,1.1-5.4,0.6-8,1.5c-0.5,0.1-0.9,0.4-1.3,0.8c-0.4,0.6-0.6,1.2-0.6,1.9c-0.8,4.6-3.7,8.7-7.1,11.9c-2,2.3-5,3.5-8.1,3.2
				c-1.9,0-3.9-0.1-5.8-0.4c-0.3,0-0.6-0.1-0.9-0.2c-0.3,0.3-0.5,0.6-0.8,0.9c0.1,0.7,1,1,1.7,1.1c1.9,0.3,3.8,0.4,5.8,0.4
				c3.1,0.3,6.1-0.9,8.1-3.3c3.4-3.2,6.3-7.3,7.1-11.9c0-0.7,0.2-1.4,0.6-1.9c0.4-0.4,0.8-0.6,1.3-0.8c2.6-0.9,5.5-0.4,8-1.5
				c3.2-1.4,4.8-4.8,6.5-8C341.6,111.2,341.7,111.9,341.8,112.4z"/>
			<path d="M362.4,97.1c-0.2,0.9-0.4,2.1-1.2,2.7c-1.3,1-1.6-0.1-2.1-1.2c-1.3-2.7-4.6-1.4-7.1-0.1l-1.3,1.7
				c-0.6,0.7-1.1,1.5-1.5,2.3c-0.2,0.7-0.5,1.4-0.6,2.1c-0.3,1.2-0.8,2.3-1.3,3.5c-1.8,4.7-2.7,9.6-2.7,14.6c0,0.2,0,0.5,0,0.7
				c0.1-4.6,1-9.2,2.7-13.6c0.4-1.2,0.9-2.3,1.3-3.5c0.2-0.7,0.4-1.4,0.6-2.1c0.4-0.8,0.9-1.6,1.5-2.3l1.3-1.7
				c2.4-1.3,5.8-2.6,7.1,0.1c0.5,1,0.8,2.2,2.1,1.2c0.8-0.6,1-1.8,1.2-2.7c0.5-2.1,0.8-4.2,0.7-6.3C363,94.1,362.8,95.6,362.4,97.1z
				"/>
		</g>
		<path class="st10" d="M378.5,164l0.4,0.3c-0.7-0.5-0.8-1.4-0.4-2c0,0,0,0,0,0l16.4-23.8c0.5-0.7,1.4-0.8,2-0.4l-0.4-0.2
			c1.1,0.7,1.3,2.2,0.6,3.2c0,0,0,0,0,0l-15.4,22.3C381,164.4,379.6,164.7,378.5,164C378.5,164,378.5,164,378.5,164z"/>
		<path class="st19" d="M396.6,137.8l0.4,0.3l0,0l-18,26.2l0,0l-0.4-0.3c-0.5-0.3-0.6-1-0.3-1.5l16.8-24.4
			C395.4,137.6,396.1,137.5,396.6,137.8z"/>
		<path class="st10" d="M394.6,141.4L394.6,141.4c0.1,0.1,0.1,0.1,0.1,0.2l-1.4,2c0,0-0.1,0.1-0.1,0l-0.1,0c0,0-0.1-0.1,0-0.1l1.4-2
			C394.5,141.4,394.5,141.4,394.6,141.4z"/>
	</g>
	
		<linearGradient id="SVGID_2_" gradientUnits="userSpaceOnUse" x1="522.0176" y1="230.2779" x2="522.0176" y2="576.1696" gradientTransform="matrix(1 0 0 -1 -39.48 829.9)">
		<stop  offset="0" style="stop-color:#808080;stop-opacity:0.25"/>
		<stop  offset="0.54" style="stop-color:#808080;stop-opacity:0.12"/>
		<stop  offset="1" style="stop-color:#808080;stop-opacity:0.1"/>
	</linearGradient>
	<path class="st20" d="M706.6,542.4l-5-15.8c0,0-4.2-11.2-3.5-17.3s-1.4-12.6-1.4-12.6l4.1-21.3c0,0,0.2-2.3,0.2-5.4
		c0-5.1-0.7-12.2-4.3-14.1c-5.6-3-17.2-28.2-19.6-28.2c-2.4,0-10.2-1.6-10.2-4.4c0-0.1,0-0.2,0-0.3c0,0,0-0.1,0-0.1
		c0,0,0-0.1-0.1-0.2l0-0.1l-0.1-0.2l0-0.1c-0.3-0.5-0.7-1-1.1-1.5c10.5-2,21-4.2,31.4-6.8h-0.4l0.4-0.1c-1.4,0-2.8-0.1-4.1-0.3
		l-0.3,0.1c-15.3-2.1-29.1-14.1-32.8-29.2c-4.2-16.8,3.1-34.3,2.8-51.6c-0.2-10.9-3.5-21.6-9.4-30.8c-0.8-1.2-1.6-2.4-2.5-3.6
		c11.7-5.7,16.6-19.8,10.9-31.6c-0.5-1.1-1.1-2.1-1.8-3.1c-0.3-0.4-0.5-0.8-0.8-1.1c5.7,9.5,4.1,21.6-3.9,29.3
		c6.3-11.4,2.1-25.6-9.2-31.9c-11.4-6.3-25.6-2.1-31.9,9.2c-0.1,0.1-0.1,0.3-0.2,0.4c-0.5-0.2-1-0.4-1.5-0.7
		c3.2-8.8,11.3-14.8,20.6-15.4c-0.5,0-0.9,0-1.4,0c-9.5,0-18,5.7-21.6,14.5c-7-2.6-14.4-3.6-21.6-1.8c-1.3,0.3-2.7,0.8-3.9,1.4
		l0.3-0.3c-1.8,0.8-3.4,1.8-4.9,3.1c-2.2,2-3.7,4.6-5.5,6.9c-1.9,2.3-4.1,4.3-6.6,6c0.2-0.1,0.4-0.2,0.6-0.3
		c-8.3,5.9-19.7,7.6-29.2,3.8c-2.7-1.1-5.3-2.5-8.1-2.9c-2.2-0.3-4.4,0.1-6.4,0.9c0.1-0.1,0.2-0.1,0.3-0.2c-2.6,1.1-4.9,2.8-6.7,5
		c-3.1,3.8-4.7,8.7-5.8,13.5c-0.8,3.4-1.2,6.9-1.2,10.4c0,4.5,1.1,8.8,3.7,12.3c4.2,5.4,9.8,6.8,15.7,7.8c-0.2,0.6-0.3,1.2-0.5,1.8
		c-7.1,27.9,9.3,56.4,36.9,64.4l1.2,2l0.4,0.1c2.8,4.7,5.8,9.9,8.6,14.9c0.1,0.3,0.3,0.5,0.4,0.8l-5.3,2.7l0,0
		c-1.4,0.7-4.8,2.6-6.7,4.4c-0.6,0.5-1,1.1-1.2,1.8c-0.8,2.7-5.1,9.7-8.1,11.6c-3,1.9-5.4,11.1-5.1,16s-1.6,4.4-6.5,4.6s0,7.3,0,7.3
		l0.1,0.5c-0.2,0.4-0.5,0.8-0.8,1.2c-1.2,1.9-2.9,4-4.1,3.9c-2.2-0.2-3.5,5.1-3.4,5.9c0.1,0.8-3.8,7.3-5.2,8c-1.5,0.7-7.8,2-6.1,8
		l-7.7,7.8l-6.2,6c0,0-8.9-5-23.3,10.6c1.6-0.2,3.2,0,4.8,0.4l-0.4,0.2c-3.8,1.8-10.4,4.9-15.2,6.8l-25.9,0.8v-19.3c0,0-2.3-5.4-5,0
		l-0.7,19.5l-56.2,1.8l10.5-11.2l0,0l0.1-0.1c2.3-2.4,3.1-5.9,2.1-9.1l-43.9-138.1l0,0l-0.3-1c-0.9-2.8-3.3-4.8-6.2-5.2l-61-8.2
		l-0.4-0.1l-5.6,1.5c-2.9,0.8-4.7,3.8-3.9,6.7c0,0,0,0.1,0,0.1c1.4,5,3.8,13.1,6.8,23.3h-8.4l6.5,55.8l3.9,21.4
		c1,5.5,2.2,10.9,3.5,16.3c3.2,13.1,9.6,40.9,9.8,57.1l-47.2,51.5v10.5h301.8c0,0,0,0.1,0,0.1h147c0,0-1.6-2.8,1.9-6.9
		c3.5-4.1,1.8-20.2,1.8-20.2s-2-2.6,0.4-8.3C711,558.6,706.6,542.4,706.6,542.4z M331.6,530.2l-8,0.3l-7.5-48.5
		C321.7,499.7,327,516.6,331.6,530.2z M538.1,559.7l-5.2-10.6c1.2,0.1,2.4-0.3,3.4-0.9c3.4-2.4,5.4-8.1,5.4-8.1l9-10.7l0.7-0.9
		c1.8,5.1,4,9.1,5.7,11.1c4.3,4.9,4.8,18.9,6.2,24.1c1.3,5.1,0.3,3,0,6c0,0.7,0,1.5,0.2,2.2C557.6,565.4,549.1,559.6,538.1,559.7z"
		/>
	<polygon class="st21" points="258.7,589.3 311.8,531.8 522.6,525 559.4,599.6 258.7,599.6 	"/>
	<polygon class="st8" points="258.7,589.3 311.8,531.8 522.6,525 559.4,599.6 258.7,599.6 	"/>
	<path class="st21" d="M533.3,573.5v2c0,2.1-1.7,3.9-3.9,3.9H416.1c-2.1,0,0-4.3,0-4.3l-1.3-28.1c-0.1-2.2,1.4-4.2,3.5-4.7
		c6.3-1.6,10.6,1,10.6,1l70.2-1.8c1.5-0.1,2.9,0,4.4,0.2c5.1,0.7,9.8,3.4,12.9,7.6l16.1,21.9C533,571.8,533.3,572.6,533.3,573.5z"/>
	<polygon class="st6" points="501.1,546.3 430,546.3 432,567.9 514.4,566.5 	"/>
	<path class="st21" d="M380.6,561.5v7.5l-74.5,3c0,0-17-1.2-19.1-11.6c-0.2-1.1-0.1-2.2,0.1-3.3c0.8-4.4,4.5-12.1,21.2-15.7
		l20.5-2.1h45.7C374.5,539.3,380.4,545.2,380.6,561.5z"/>
	<path class="st0" d="M380.6,561.7v7.3l-74.5,3c0,0-17-1.2-19.1-11.6c-0.2-1.1-0.1-2.2,0.1-3.3c0,0,10.3,9.7,24.2,8.3l65.6-2.9
		C378.1,562.3,379.4,562.1,380.6,561.7z"/>
	
		<ellipse transform="matrix(0.9987 -5.146447e-02 5.146447e-02 0.9987 -27.8894 17.373)" class="st0" cx="323.4" cy="550.2" rx="22.9" ry="3.9"/>
	<path class="st21" d="M330.7,559.4l-12,6l-12.8-3l-0.1-20.9c0.8-15.3-6.2-45.8-9.7-59.6c-1.3-5.3-2.5-10.7-3.5-16.2l-3.9-21.2
		l-6.4-55.2h15.3l9,12.9L330.7,559.4z"/>
	<path class="st21" d="M330.7,559.4l-12,6l-7.7-44.6c0.1-7.6-9.4-43.7-10-45.2c-7.6-18.1-14.1-86.3-14.1-86.3h10.6l9,12.8
		L330.7,559.4z"/>
	<path class="st22" d="M330.7,559.4l-12,6l-7.7-44.6c0.1-7.6-9.4-43.7-10-45.2c-7.6-18.1-14.1-86.3-14.1-86.3h10.6l9,12.8
		L330.7,559.4z"/>
	<path class="st21" d="M402.5,518l-41,43.2l-4.8,0.3l-5.9,0.4c-2.8,0.2-5.4-1.4-6.5-3.9c-12.4-28-52.2-163.3-60.6-191.9
		c-0.8-2.9,0.8-5.9,3.7-6.7c0,0,0.1,0,0.1,0l5.6-1.5l0.4,0l59.8,8c3.5,0.5,6.4,2.9,7.5,6.3l43.8,136.7
		C405.6,512.1,404.8,515.6,402.5,518z"/>
	<path class="st0" d="M402.5,518l-41,43.2l-4.8,0.3l-5.9,0.4c-2.8,0.2-5.4-1.4-6.5-3.9c-12.4-28-52.2-163.3-60.6-191.9
		c-0.8-2.9,0.8-5.9,3.7-6.7c0,0,0.1,0,0.1,0l5.6-1.5l0.4,0l59.8,8c3.5,0.5,6.4,2.9,7.5,6.3l43.8,136.7
		C405.6,512.1,404.8,515.6,402.5,518z"/>
	<path class="st21" d="M402.4,518.1l-40.9,43.1l-4.8,0.3l-61.4-196.5c-1-2.3-1.6-4.7-1.7-7.2l60.8,8.2c2.9,0.4,5.3,2.4,6.2,5.2
		l44,137.5C405.6,512,404.7,515.6,402.4,518.1z"/>
	<path class="st6" d="M399.4,510.9c-0.4,0.8-1,1.5-1.7,2.1l-40.3,37.4l-54.9-182l52.7,5.2c3.7,0.4,6.9,3,8,6.5l37,123.4
		C401,506,400.7,508.6,399.4,510.9z"/>
	<path class="st0" d="M399.4,510.9l-44.1-137.3c3.7,0.4,6.9,3,8,6.5l37,123.4C401,506,400.7,508.6,399.4,510.9z"/>
	<circle class="st23" cx="635.8" cy="284.1" r="23.3"/>
	<path class="st23" d="M612.2,280.7c0-12.4,9.6-22.6,22-23.3c-0.5,0-0.9,0-1.4,0c-12.9-0.2-23.5,10.1-23.7,23
		c-0.2,12.9,10.1,23.5,23,23.7c0.3,0,0.5,0,0.8,0c0.5,0,0.9,0,1.4,0C621.8,303.2,612.2,293,612.2,280.7z"/>
	<path class="st0" d="M615.2,284.1c0-12.4,9.6-22.6,22-23.3c-0.5,0-0.9,0-1.4,0c-12.9,0.2-23.2,10.8-23,23.7
		c0.2,12.6,10.4,22.8,23,23c0.5,0,0.9,0,1.4,0C624.8,306.7,615.2,296.5,615.2,284.1z"/>
	<path class="st24" d="M515.6,545.9c-2.2,1.2-4.4,2.2-6.7,3.1c-6,2.4-15.2,5.1-23.7,4c-14.3-1.7-22.9,2.9-22.9,2.9l-3.2-23.8
		c0,0,10.6-3.1,14.9-3.9c3.2-0.6,14.8-6,20.4-8.6c1.9-0.9,3-1.4,3-1.4h10.7L515.6,545.9z"/>
	<path class="st0" d="M515.6,545.9c-2.2,1.2-4.4,2.2-6.7,3.1c-0.7-21.2-8.9-27.5-14.5-29.4c1.9-0.9,3-1.4,3-1.4h10.7L515.6,545.9z"
		/>
	<path class="st25" d="M555.3,474.6v52.2l-2.8,3.3l-9,10.6c0,0-2,5.6-5.4,8s-11-0.8-11-0.8l-2.1,3.5c0,0-4.8,0.9-7.1,0
		c-2.3-0.9-7.9,2.7-7.9,2.7c0.8-38.3-20-35.2-20-35.2c14.3-15.4,23.2-10.5,23.2-10.5l6.2-5.9l7.6-7.7c-1.7-6,4.6-7.3,6-7.9
		c1.5-0.7,5.4-7.1,5.2-7.9c-0.1-0.8,1.2-6,3.3-5.8c1.2,0.1,2.8-2,4.1-3.9c1-1.5,1.7-2.9,1.7-2.9L555.3,474.6z"/>
	<path class="st25" d="M573.8,422.4l15.8-8.1l-0.9,9.5l3.1,9.5c0,0-2.9,7.4-3.2,8.2c-0.4,0.8-7.1,17.6-7.1,17.6l-5.4-6.9
		L573.8,422.4z"/>
	<polyline class="st0" points="576,452.2 573.8,422.4 589.6,414.3 	"/>
	<path class="st24" d="M641.7,413.5c0,0-5.2,7.5-12.4,17.2c-16.7,22.4-43.9,56-39.8,31.6c0.1-0.8,0.2-1.6,0.3-2.4
		c-1,0.7-3.4,0.1-5.9-1.1l-0.2-0.1c-1.3-0.6-2.5-1.3-3.6-2.1c-0.1-0.1-0.3-0.2-0.4-0.3c-2.8-2-5.1-4.3-5-5.9
		c2-35,10.1-18.3,12.4-14.4c0.1,0.3,0.3,0.5,0.5,0.7c-0.1-0.3-0.2-0.6-0.3-0.9c-1.6-3.9-4.7-9.8-8.2-16.1v-0.1l-0.5-0.8
		c-2.9-5.2-6.1-10.6-8.9-15.4l-0.8-1.3c-4.5-7.5-8-13.1-8-13.1s20.3-18.6,37.5-29.9c14.3-9.4,26.4-13.8,22.5,2
		c-2.5,10.2-1.8,18.9,0.5,26.1c0.1,0.3,0.2,0.5,0.3,0.8c0.5,1.4,1,2.7,1.6,4c0.8,1.8,1.7,3.6,2.8,5.3
		C630.2,403.9,635.4,409.4,641.7,413.5z"/>
	<path class="st22" d="M610.1,385.3c-9.6,10.5-11.7,20.5-27.1,20.5c-4.5,0-8.9-0.6-13.2-1.7c-4.8-8.1-8.7-14.4-8.7-14.4
		s68.5-62.7,60-27.9C618.5,372.4,607.6,377.9,610.1,385.3z"/>
	<path class="st24" d="M635.8,351.4c0,29.2-23.6,52.8-52.8,52.8c-29.2,0-52.8-23.6-52.8-52.8c0-29.2,23.6-52.8,52.8-52.8
		c0,0,0,0,0,0c29-0.1,52.6,23.3,52.8,52.3C635.8,351.1,635.8,351.2,635.8,351.4z"/>
	<path class="st0" d="M581.8,442.7c0,0,0.9,15,10.5,13.8c9.5-1.2,2.3,31.9,2.3,31.9L584,498l-11.4,3.5c0,0-10-2.9-9.9-3.5
		c0.1-0.5,4-31.9,4-31.9l5.9-16.7L581.8,442.7z"/>
	<path class="st21" d="M581.8,443.8c0,0,0.9,15,10.5,13.8c9.5-1.2,2.3,31.9,2.3,31.9l-10.6,9.6l-11.4,3.5c0,0-10-2.9-9.9-3.5
		c0.1-0.5,4-31.9,4-31.9l5.9-16.7L581.8,443.8z"/>
	<path class="st0" d="M555.3,474.6v52.2l-2.8,3.3c-2.9-7.7-5.1-18.1-3.7-27.4c1.8-12.4-1.8-28.3-3-33.4c1-1.5,1.7-2.9,1.7-2.9
		L555.3,474.6z"/>
	<path class="st0" d="M583,445.4c-0.3,2.9-1.1,5.8-2.3,8.5c-0.3,0.8-0.7,1.6-1.1,2.4c-2.8-2-5.1-4.3-5-5.9c2-35,10.1-18.3,12.4-14.4
		C586,436.9,583.5,439.4,583,445.4z"/>
	<path class="st0" d="M587.3,435.9c-1.7-4.1-5-10.4-8.7-17l0.5-0.2l8.5,17C587.5,435.8,587.4,435.8,587.3,435.9z"/>
	<path class="st0" d="M641.7,413.5c0,0-58.1,83.6-52.2,48.8c0.1-0.8,0.2-1.6,0.3-2.4c-1,0.7-3.5,0.1-6.1-1.2
		c0.4-2.3,0.6-3.9,0.6-3.9l6.4-18.2c0,0,3.7-14.5,3.2-17.4l0.2-0.1l32-21.5h0l0,0C630.1,404,635.4,409.4,641.7,413.5z"/>
	<path class="st25" d="M702,476.8l-4.6,23.6l-13.7,99.4H565.1c0,0,2.1-17.4,2.1-20.1c0-2.7-2.4-6.7-2.1-9.6s1.3-0.8,0-5.9
		c-1.3-5.1-1.9-19-6.1-23.8c-4.3-4.8-11.3-22.5-9.1-37.5s-3.5-35.1-3.5-35.1s-4.8-7,0-7.2c4.8-0.3,6.7,0.2,6.4-4.6
		c-0.3-4.8,2.1-13.9,5.1-15.8s7.2-8.8,8-11.5c0.3-0.7,0.7-1.3,1.2-1.7c2.4-2.3,7.3-4.7,7.3-4.7l4.7-2.3v0.1l8.5,17
		c0,0-4,1.9-4.6,9.7c-0.3,2.9-1.1,5.8-2.3,8.5c-0.2,0.5-0.4,1.1-0.7,1.6c-0.7,1.5-1.4,2.9-2,3.9l0,0c-0.9,1.6-1.5,2.6-1.5,2.6
		s-0.2,1.8-0.6,4.4l0,0c-0.7,5.2-1.9,13.5-2.6,15.4c-0.6,1.8-1.9,4.8-2.6,7.5c-0.4,1.7-0.7,3.2-0.5,4.3c0,0.1,0,0.2,0.1,0.2
		c0.8,2.5,4.8-8.2,4.8-8.2s2.9-9.1,4.3-9.1c1,0,3.3-12.9,4.4-18.8c0.3-1.8,0.5-2.9,0.5-2.9l6.4-18.2c0,0,0.9-3.4,1.7-7.3
		c0.9-4.1,1.7-8.6,1.5-10.1l0.2-0.1l32-21.5h0l0.5-0.3h0c-0.2,0-0.9-0.4-2.1-3.3c-0.3-0.7-0.7-1.6-1.1-2.7c0,0,10.2-4.1,13.9-1.1
		c0.2,0.2,0.4,0.4,0.6,0.7c0.1,0.1,0.2,0.3,0.3,0.4c2.4,5,3.5,8.7,5.9,11.9c0.3,0.3,0.5,0.7,0.8,1c2.9,3.1,8.7,6.6,7.7,7.6
		c-1.1,1.1,8,5.6,8,5.6s5.3,3,7,5.6c0.3,0.4,0.5,0.9,0.5,1.4c0,2.7,7.8,4.3,10.2,4.3s13.9,24.9,19.6,27.9
		C703.6,460.3,702,476.8,702,476.8z"/>
	<g class="st14">
		<path d="M581.7,436.8c0,0-4,1.9-4.6,9.7c-0.3,2.9-1.1,5.8-2.3,8.5c-0.8,1.9-1.7,3.7-2.6,5.5l0,0c-0.9,1.6-1.5,2.6-1.5,2.6
			s-0.2,1.8-0.6,4.4l0,0c-0.7,5.3-1.9,13.5-2.6,15.5c-0.6,1.8-1.9,4.8-2.6,7.5c-0.4,1.7-0.7,3.2-0.5,4.3c0,0.1,0,0.2,0.1,0.2
			c0.8,2.5,4.8-8.2,4.8-8.2s2.9-9.1,4.3-9.1c0.4,0,0.9-1.8,1.5-4.3c0.3-2,0.6-4.1,0.8-5.8l0,0c0.3-2.5,0.6-4.4,0.6-4.4
			s0.4-0.5,0.9-1.5c0.6-3.3,1-5.8,1-5.8l6.4-18.2c0,0,0.5-1.8,1.1-4.3l-6.8-13.6l-4.7,2.3l0,0L581.7,436.8z"/>
		<path d="M697.9,457.5c-5.6-2.9-17.1-27.9-19.6-27.9c-2.4,0-10.2-1.6-10.2-4.3c0-2.7-7.5-7-7.5-7s-9.1-4.6-8-5.6
			c1-1-4.8-4.5-7.7-7.6c-0.3-0.3-0.6-0.6-0.8-1c-2.4-3.2-3.5-7-5.9-11.9c-0.1-0.2-0.2-0.3-0.3-0.4c-0.2-0.2-0.4-0.5-0.6-0.7
			c-1.6-1.3-4.6-1.2-7.4-0.8c0.5,0.2,1,0.4,1.5,0.8c0.2,0.2,0.4,0.4,0.6,0.7c0.1,0.1,0.2,0.3,0.3,0.4c2.4,5,3.5,8.7,5.9,11.9
			c0.3,0.3,0.5,0.7,0.9,1c2.9,3.1,8.7,6.6,7.7,7.6c-1.1,1.1,8,5.6,8,5.6s7.5,4.3,7.5,7c0,2.7,7.8,4.3,10.2,4.3
			c2.4,0,13.9,24.9,19.6,27.9c5.6,2.9,4,19.3,4,19.3l-4.6,23.6l-13.7,99.4h5.9l13.7-99.4l4.6-23.6
			C702,476.7,703.6,460.4,697.9,457.5z"/>
	</g>
	<path class="st24" d="M464,532.6c0,0-34.1-9.9-36.5,5.3c-2.4,15.1,13.9,23.8,24.4,23.6c10.4-0.3,15-10.2,15-10.2L464,532.6z"/>
	<path class="st24" d="M634.8,568.1c0,0-7.6,5.5-23.8,5.5s-35.1,3.5-35.1,3.5s-24.1-56.8-72.5-8.2c0,0-8.7,11.3,36.4,12.4
		c0,0,15.9-0.5,19.4,7.4h90.1l12.3-9.2L634.8,568.1z"/>
	<path class="st21" d="M453.5,508.1c0,0-2.3-5.4-5,0l-1.5,41.5l3.2,9.8l3.2-8.7L453.5,508.1z"/>
	<path class="st0" d="M637.9,391.8c-4.7,1.6-9.8,5.3-11.3,6.5c-0.3,0-1.2-0.6-3.2-6C623.4,392.2,635,387.6,637.9,391.8z"/>
	<path class="st25" d="M587.6,436.8c0,0-4,1.9-4.6,9.7c-0.3,2.9-1.1,5.8-2.3,8.5l-2.6,5.5l0,0l-2.1,6.9l0,0l0.2,14.1l-5.4,8.8
		l-0.5,4.3l-1.4,13.2l-7.2-3.5c0,0,3-21.3,5.2-25.6c2.2-4.3,5.2-27.1,5.2-27.1s-0.1-8.4,0.9-9.8c1.1-1.5-1.9-1.2-2.1-4.3
		c-0.2-1.8-2.2-6.9-3.8-10.7c2.4-2.3,7.3-4.7,7.3-4.7l4.7-2.3L587.6,436.8z"/>
	<path class="st0" d="M587.6,436.8c0,0-4,1.9-4.6,9.7c-0.3,2.9-1.1,5.8-2.3,8.5l-2.6,5.5l0,0l-2.1,6.9l0,0l0.2,14.1l-5.4,8.8
		l-0.5,4.3l-1.4,13.2l-7.2-3.5c0,0,3-21.3,5.2-25.6c2.2-4.3,5.2-27.1,5.2-27.1s-0.1-8.4,0.9-9.8c1.1-1.5-1.9-1.2-2.1-4.3
		c-0.2-1.8-2.2-6.9-3.8-10.7c2.4-2.3,7.3-4.7,7.3-4.7l4.7-2.3L587.6,436.8z"/>
	<path class="st0" d="M644.9,406.2c-6,4.9-22,18.8-23.9,28.2c-2.3,11.6-9.1,10.5-9.1,10.5c-8.5-18.5-14.4-23.1-17.8-23.7l32-21.5
		c0,0,0,0,0,0l0.5-0.3h-0.1c-0.2,0-0.9-0.4-2.1-3.3l12.8-3.8c0.2,0.2,0.4,0.4,0.6,0.7c0.1,0.1,0.2,0.3,0.3,0.4
		c2.4,5,3.5,8.7,5.9,11.9C644.4,405.6,644.6,405.9,644.9,406.2z"/>
	<path class="st25" d="M644.9,405.1c-6,4.9-22,18.8-23.9,28.2c-2.3,11.6-9.1,10.5-9.1,10.5c-8.5-18.5-14.4-23.1-17.8-23.7l32-21.5h0
		l0.5-0.3h-0.1c-0.2,0-0.9-0.4-2.1-3.3l12.8-3.8c0.2,0.2,0.4,0.4,0.6,0.7c0.1,0.1,0.2,0.3,0.3,0.4c2.4,5,3.5,8.7,5.9,11.9
		C644.4,404.5,644.6,404.8,644.9,405.1z"/>
	<path class="st0" d="M608.7,499c0.4-0.1,21.3-11.9,18.9-3S608.7,499,608.7,499z"/>
	<path class="st0" d="M518.4,510.3c0,0,11,17.1,14.9,16.5C537.2,526.3,518.4,510.3,518.4,510.3z"/>
	<path class="st0" d="M532.1,503.9c0,0,0.7,13.3,6.4,14.2S532.1,503.9,532.1,503.9z"/>
	<path class="st0" d="M593,535.6c0,0,13.6,22.7,11,30.5L593,535.6z"/>
	<path class="st0" d="M608.9,538.2c0,0,18.5,24.2,15.3,26.3C620.9,566.5,608.9,538.2,608.9,538.2z"/>
	<path class="st0" d="M567.4,510.3c0,0-1.9,17.2,5.2,22.3L567.4,510.3z"/>
	<path class="st0" d="M650.1,433.6c0,0-31.6,24.5-26.5,50c5.1,25.5,9.9,27.3,9.9,27.3s1.9,10.2,5.4,14.5c3.5,4.3,2.9,7.1,2.9,7.1
		s3.2-1.5,4.3,5.9s6.7,12.6,6.7,12.6s1.9,5.9-2.9,9.1c-4.8,3.2-3.7,6.7-3.7,6.7l-19.6,11.4l21.8,21.6h56.3c0,0-1.6-2.8,1.9-6.8
		c3.5-4,1.7-20,1.7-20s-1.9-2.5,0.4-8.2c2.4-5.6-2-21.7-2-21.7l-5-15.7c0,0-4.2-11.1-3.5-17.1s-1.4-12.5-1.4-12.5L686,463.8
		C686,463.8,686.5,429.7,650.1,433.6z"/>
	<path class="st25" d="M651.2,433.6c0,0-31.6,24.5-26.5,50c5.1,25.5,9.9,27.3,9.9,27.3s1.9,10.2,5.4,14.5c3.5,4.3,2.9,7.1,2.9,7.1
		s3.2-1.5,4.3,5.9s6.7,12.6,6.7,12.6s1.9,5.9-2.9,9.1c-4.8,3.2-3.7,6.7-3.7,6.7l-19.6,11.4l21.8,21.6h56.3c0,0-1.6-2.8,1.9-6.8
		s1.7-20,1.7-20s-1.9-2.5,0.4-8.2c2.4-5.6-2-21.7-2-21.7l-5-15.7c0,0-4.2-11.1-3.5-17.1s-1.4-12.5-1.4-12.5l-10.8-34.1
		C687.1,463.8,687.6,429.7,651.2,433.6z"/>
	<path class="st0" d="M661.8,450.9c0,0,22.5,7.6,28.5,11.4C696.3,466,681.5,447.4,661.8,450.9z"/>
	<path class="st0" d="M673.6,555.8c0,0,32,4,30.1,10.3S673.6,555.8,673.6,555.8z"/>
	<path class="st0" d="M667.3,562.6c0,0,23.4,7.5,19.3,13.7S667.3,562.6,667.3,562.6z"/>
	<path class="st0" d="M667.7,424c-12.8,2.5-25.6,4.6-38.5,6.7l-3.3,0.6c-7.1,1.2-14.2,2.3-21.3,2.3c-3.5,0-7.1-0.4-10.2-2
		c-0.7-0.4-1.3-0.8-1.9-1.2c-2.2-1.7-3.7-4.3-3.7-7c0-5,4.8-8.5,8.9-11.4c6-4.2,11.9-9.6,14.2-16.4c0.4-1.3,0.7-2.6,0.9-3.9
		c0.7-5.8-1.4-11.4-3.6-16.8c-2.4-5.8-5.8-12.1-10.7-15.6c-2-1.5-4.3-2.4-6.7-2.7c-7.5-1-14.6,4.4-22.2,4.1
		c-6.1-0.3-11.4-4.2-15.1-8.9c-2.7-3.4-4.4-7.9-8.4-9.9c-4.4-2.2-9.4-2.7-14.3-3.4c7.2-28.3,35.9-45.3,64.2-38.1
		c28.3,7.2,45.3,35.9,38.1,64.2c-2.2,8.6-6.5,16.5-12.6,23c0.1,0.3,0.2,0.5,0.3,0.8c0.5,1.4,1,2.7,1.6,4c0,0,10.2-4.1,13.9-1.1
		c0.2,0.2,0.4,0.4,0.6,0.7c0.1,0.1,0.2,0.3,0.3,0.4c2.4,5,3.5,8.7,5.9,11.9c0.3,0.3,0.5,0.7,0.8,1c2.9,3.1,8.7,6.6,7.7,7.6
		c-1.1,1.1,8,5.6,8,5.6S666,421.4,667.7,424z"/>
	<path class="st23" d="M516.7,328.8c-4.8-6.1-4.2-14.8-2.5-22.4c1.1-4.8,2.7-9.6,5.8-13.4s7.9-6.5,12.8-5.8c2.8,0.4,5.4,1.8,8.1,2.9
		c12,4.7,26.9,0.8,35-9.3c1.8-2.3,3.3-4.8,5.5-6.8c2.4-2.1,5.3-3.6,8.4-4.3c13.5-3.4,27.4,3.3,39,11.1c9.9,6.6,19.2,14.4,25.7,24.4
		c5.9,9.1,9.1,19.7,9.3,30.5c0.3,17.2-6.9,34.5-2.8,51.1c4.1,16.4,20.1,29.1,37.1,29.2c-23.3,5.7-46.9,9.6-70.6,13.5
		c-7.1,1.2-14.2,2.3-21.3,2.3c-3.5,0-7.1-0.4-10.2-2s-5.6-4.8-5.6-8.2c0-5,4.8-8.5,8.9-11.4c7.1-5,14.1-11.7,15.1-20.3
		c0.7-5.8-1.4-11.4-3.6-16.8c-3.4-8.1-8.6-17.2-17.4-18.3c-7.5-1-14.6,4.4-22.2,4c-6.1-0.3-11.4-4.2-15.1-8.9
		c-2.7-3.4-4.4-7.9-8.4-9.9C537.7,335.2,524.5,338.9,516.7,328.8z"/>
	<path class="st23" d="M653.5,297.5c10.1-7,13.1-20.8,6.6-31.3c0.3,0.4,0.6,0.7,0.8,1.1c7.5,10.5,5.1,25.1-5.4,32.6
		c-10.5,7.5-25.1,5.1-32.6-5.4c-0.1-0.2-0.3-0.4-0.4-0.6c-0.3-0.4-0.5-0.8-0.8-1.2C629.5,302.5,643.3,304.6,653.5,297.5z"/>
	<g class="st14">
		<path d="M579.5,278.7c1.8-2.3,3.3-4.8,5.5-6.8c0.4-0.3,0.7-0.6,1.1-0.9c-1.8,0.7-3.4,1.8-4.9,3.1c-2.2,2-3.7,4.5-5.5,6.8
			c-1.9,2.3-4.1,4.3-6.5,5.9C573.2,284.8,576.7,282.1,579.5,278.7z"/>
		<path d="M631.3,427.4c-7.1,1.2-14.2,2.3-21.3,2.3c-3.5,0-7.1-0.4-10.2-2s-5.6-4.8-5.6-8.3c0-5,4.8-8.5,8.9-11.4
			c7.1-5,14.1-11.7,15.1-20.3c0.7-5.7-1.4-11.4-3.6-16.8c-3.4-8.1-8.6-17.2-17.4-18.3c-7.5-1-14.6,4.4-22.2,4
			c-6.1-0.3-11.4-4.2-15.1-8.9c-2.7-3.4-4.4-7.9-8.4-9.9c-10-5-23.2-1.2-31.1-11.3c-4.8-6.1-4.2-14.8-2.5-22.4
			c1.1-4.8,2.7-9.6,5.8-13.4c0.9-1.1,1.8-2,2.9-2.8c-2.6,1.1-4.9,2.8-6.7,5c-3.1,3.8-4.7,8.6-5.8,13.4c-1.8,7.6-2.3,16.3,2.5,22.4
			c7.8,10.1,21,6.3,31.1,11.3c4,2,5.8,6.5,8.4,9.9c3.7,4.6,8.9,8.6,15.1,8.9c7.6,0.3,14.7-5,22.2-4c8.8,1.2,14,10.2,17.4,18.3
			c2.2,5.3,4.4,11,3.6,16.8c-1,8.6-8,15.3-15.1,20.3c-4.1,2.9-8.8,6.4-8.9,11.4c0,3.5,2.5,6.6,5.6,8.3s6.7,2,10.2,2
			c7.2,0,14.3-1.1,21.3-2.3c23.6-3.9,47.3-7.8,70.6-13.5c-1.4,0-2.8-0.1-4.1-0.3C673.2,420.5,652.2,423.9,631.3,427.4z"/>
	</g>
	<ellipse class="st24" cx="455.8" cy="539.8" rx="10.2" ry="5.6"/>
	<path class="st26" d="M624.2,125.6c-11.3-3-22.8-6.1-34.5-6.6c-11.7-0.5-23.9,1.8-33.5,8.6c-4.8,3.4-8.8,7.8-12.8,12.1
		c-21.4,22.7-45.3,42.9-71.3,60.3c-10.5,7-21.6,13.6-34.1,15.4c-12.5,1.7-26.5-2.6-33-13.4l3.8-2"/>
	<path class="st21" d="M724.4,109.2h-80.3c-3.2,0-5.7-2.6-5.7-5.7V92c0-3.2,2.6-5.7,5.7-5.8c0,0,0,0,0,0h80.3c3.2,0,5.7,2.6,5.7,5.7
		v11.5C730.1,106.7,727.6,109.2,724.4,109.2z M715.8,93.4c-2.4,0-4.3,1.9-4.3,4.3s1.9,4.3,4.3,4.3c2.4,0,4.3-1.9,4.3-4.3
		C720.1,95.4,718.2,93.4,715.8,93.4C715.8,93.4,715.8,93.4,715.8,93.4z M704.3,93.4c-2.4,0-4.3,1.9-4.3,4.3s1.9,4.3,4.3,4.3
		s4.3-1.9,4.3-4.3c0,0,0,0,0,0C708.6,95.4,706.7,93.4,704.3,93.4L704.3,93.4z M724.4,137.9h-80.3c-3.2,0-5.7-2.6-5.7-5.7v-11.5
		c0-3.2,2.6-5.7,5.7-5.7h80.3c3.2,0,5.7,2.6,5.7,5.7v11.5C730.1,135.3,727.6,137.9,724.4,137.9z M715.8,122.1
		c-2.4,0-4.3,1.9-4.3,4.3c0,2.4,1.9,4.3,4.3,4.3c2.4,0,4.3-1.9,4.3-4.3c0,0,0,0,0,0C720.1,124.1,718.2,122.1,715.8,122.1
		C715.8,122.1,715.8,122.1,715.8,122.1z M704.3,122.1c-2.4,0-4.3,1.9-4.3,4.3c0,2.4,1.9,4.3,4.3,4.3c2.4,0,4.3-1.9,4.3-4.3
		c0,0,0,0,0,0C708.6,124.1,706.7,122.1,704.3,122.1L704.3,122.1z M724.4,166.6h-80.3c-3.2,0-5.7-2.6-5.7-5.7v-11.5
		c0-3.2,2.6-5.7,5.7-5.7h80.3c3.2,0,5.7,2.6,5.7,5.7v11.5C730.1,164,727.6,166.6,724.4,166.6C724.4,166.6,724.4,166.6,724.4,166.6z
		 M715.8,150.8c-2.4,0-4.3,1.9-4.3,4.3s1.9,4.3,4.3,4.3c2.4,0,4.3-1.9,4.3-4.3v0C720.1,152.8,718.2,150.8,715.8,150.8
		C715.8,150.8,715.8,150.8,715.8,150.8z M704.3,150.8c-2.4,0-4.3,1.9-4.3,4.3c0,2.4,1.9,4.3,4.3,4.3c2.4,0,4.3-1.9,4.3-4.3
		c0,0,0,0,0,0C708.6,152.8,706.7,150.8,704.3,150.8L704.3,150.8z"/>
	<path class="st26" d="M737.4,124.6c5.2-0.6,10.7-0.4,15.1,2.3c4.7,2.9,7.4,8.3,8.3,13.7c0.9,5.4,0.3,11-0.4,16.4l-3.5,29.4
		c-0.5,4.1-1,8.4,0.4,12.3c1.3,3.9,5,7.4,9.2,7"/>
	<path class="st26" d="M400.7,374.5c13.3,0.3,28.2,0,37.4-9.6c7-7.3,8.6-18,10.9-27.8c4.2-17.7,11.9-34.7,23.6-48.7
		c11.7-14,27.5-24.7,45.1-29.1c14.2-3.5,29.1-2.8,43.4-6s28.9-11.6,32.9-25.7"/>
	<path class="st27" d="M623.2,197L587.4,210c-0.4,0.1-0.5,0.5-0.4,0.9c0.1,0.1,0.1,0.3,0.3,0.3l5.3,3c0.3,0.2,0.5,0.5,0.6,0.8
		l3.1,9.7c0,0.4,0.7,0.6,0.8,0.2l0.4-7.6c0.1-0.5,0.4-1,0.8-1.4l19.7-14.3c0.1-0.1,0.3-0.1,0.4,0c0.2,0.1,0.3,0.3,0.2,0.5
		c0,0.1-0.1,0.1-0.1,0.1l-17.5,16c-0.4,0.4-0.7,0.9-0.8,1.4l-1.9,6.3c0,0.6,0.4,0.9,0.8,0.4l3.7-3.3c0.3-0.3,0.7-0.3,1,0
		c0,0,0,0,0,0l7.3,7.2c0.3,0.3,0.7,0.3,0.9,0c0.1-0.1,0.1-0.2,0.2-0.3l11.6-32.2c0.1-0.3,0-0.7-0.4-0.9
		C623.4,196.9,623.3,196.9,623.2,197L623.2,197z"/>
</g>
<linearGradient id="SVGID_3_" gradientUnits="userSpaceOnUse" x1="562.6497" y1="686.9456" x2="562.6497" y2="52.8891">
	<stop  offset="0" style="stop-color:#FFFFFF"/>
	<stop  offset="0.2445" style="stop-color:#FFFFFF;stop-opacity:0.6909"/>
	<stop  offset="0.2848" style="stop-color:#FFFFFF;stop-opacity:0.64"/>
	<stop  offset="0.3859" style="stop-color:#FFFFFF;stop-opacity:0.5495"/>
	<stop  offset="1" style="stop-color:#FFFFFF;stop-opacity:0"/>
</linearGradient>
<rect x="89" y="52.9" class="st28" width="947.3" height="634.1"/>
</svg>
